<svg xmlns="http://www.w3.org/2000/svg" xmlns:xlink="http://www.w3.org/1999/xlink" viewBox="0 0 191.64259 171.6396">
  <defs>
    <style>
      .a {
        fill: none;
      }

      .b {
        isolation: isolate;
      }

      .c, .f {
        fill: #ecf6ef;
      }

      .d {
        fill: #a5d8c1;
      }

      .d, .f, .h {
        opacity: 0.6;
      }

      .ac, .ap, .as, .av, .az, .be, .bk, .bv, .cd, .ci, .d, .e, .h, .o, .q, .u, .v {
        mix-blend-mode: multiply;
      }

      .e {
        fill: #8fcab4;
        opacity: 0.5;
      }

      .g {
        fill: #ffe331;
      }

      .i {
        fill: #82afbd;
      }

      .j {
        fill: #fff;
      }

      .k {
        fill: #bf5408;
      }

      .l {
        fill: #9e4200;
      }

      .m {
        fill: #af4423;
      }

      .n {
        fill: #eaa27a;
      }

      .o {
        fill: #f0e7e1;
      }

      .p {
        fill: #895540;
      }

      .q {
        fill: #bfa38e;
      }

      .r {
        fill: #52372c;
      }

      .ab, .ad, .af, .ai, .ao, .ay, .bb, .bj, .cc, .ce, .ch, .cm, .cn, .co, .cv, .cx, .r, .w, .z {
        mix-blend-mode: screen;
      }

      .s {
        fill: #ed872d;
      }

      .t {
        fill: #f58989;
      }

      .u {
        fill: #e6bcbc;
      }

      .v {
        fill: #e0bfa6;
      }

      .w {
        fill: #4a3727;
      }

      .x {
        fill: #fca15e;
      }

      .y {
        fill: #d16c32;
      }

      .z {
        fill: #6e4629;
      }

      .aa {
        fill: #b04f4f;
      }

      .ab {
        fill: #522727;
      }

      .ac {
        fill: #f5cbcb;
      }

      .ad {
        fill: #8a4242;
      }

      .ae {
        fill: #bf571b;
      }

      .af {
        fill: #7d4515;
      }

      .ag {
        fill: #b05c1f;
      }

      .ah {
        fill: #de6d6d;
      }

      .aj {
        fill: #6c8d8e;
      }

      .ak {
        fill: #82aaab;
      }

      .al {
        fill: #a7dadb;
      }

      .am {
        fill: #eaa494;
      }

      .an {
        fill: #7ec1a9;
      }

      .ao {
        fill: #394a44;
      }

      .ap {
        fill: #d5f0e6;
      }

      .aq {
        fill: #47374d;
      }

      .ar, .at, .bd, .bf, .bi, .bm, .bt, .bx {
        mix-blend-mode: hard-light;
      }

      .ar {
        fill: url(#a);
      }

      .as {
        fill: #e8d6cc;
      }

      .at {
        fill: url(#b);
      }

      .au {
        fill: #92d4be;
      }

      .av {
        fill: #94819c;
      }

      .aw {
        fill: #9be0c9;
      }

      .ax {
        fill: #aa4811;
      }

      .ay {
        fill: #451d07;
      }

      .az {
        fill: #d9c5ba;
      }

      .ba {
        fill: #bbf2de;
      }

      .bb {
        fill: #76998c;
      }

      .bc {
        fill: #873308;
      }

      .bd {
        fill: url(#c);
      }

      .be {
        fill: #baa9a0;
      }

      .bf {
        fill: url(#d);
      }

      .bg {
        fill: #354045;
      }

      .bh {
        fill: #fac4a6;
      }

      .bi {
        fill: url(#e);
      }

      .bj {
        fill: #804728;
      }

      .bk {
        fill: #f5f0ed;
      }

      .bl {
        fill: #67a08a;
      }

      .bm {
        fill: url(#f);
      }

      .bn {
        fill: #ed7070;
      }

      .bo {
        fill: #e24d4d;
      }

      .bp {
        fill: #874545;
      }

      .bq {
        fill: #ffe6db;
      }

      .br {
        fill: #cf9b84;
      }

      .bs {
        fill: #208b8e;
      }

      .bt {
        fill: url(#g);
      }

      .bu {
        fill: #d1a88a;
      }

      .bv {
        fill: #d3e3e3;
      }

      .bw {
        fill: #362014;
      }

      .bx {
        fill: url(#h);
      }

      .by {
        fill: #663f30;
      }

      .bz {
        fill: #995d50;
      }

      .ca {
        fill: #a64b17;
      }

      .cb {
        fill: #aa3609;
      }

      .cc {
        fill: #852a07;
      }

      .cd {
        fill: #f0dcd1;
      }

      .ce {
        fill: #4d3528;
      }

      .cf {
        fill: #b6e67a;
      }

      .cg {
        fill: #e05607;
      }

      .ch {
        fill: #8f2100;
      }

      .cj {
        clip-path: url(#i);
      }

      .ck {
        fill: #ebcca9;
      }

      .cl, .cm {
        fill: #360600;
      }

      .cn {
        fill: #170300;
      }

      .co {
        fill: #612b04;
      }

      .cp {
        fill: #e2ad86;
      }

      .cq {
        fill: #ffa48f;
      }

      .cr {
        fill: #c7804a;
      }

      .cs {
        fill: #f7c5a1;
      }

      .ct {
        fill: #ff7d63;
      }

      .cu {
        fill: #ea6852;
      }

      .cv {
        fill: #6b1515;
      }

      .cw {
        fill: #ff8a73;
      }

      .cx {
        fill: #eb2f2f;
      }

      .cy {
        fill: #943a2e;
      }

      .cz {
        fill: #6f7a42;
      }

      .da {
        fill: #4c1d11;
      }
    </style>
    <linearGradient id="a" x1="48.82008" y1="125.6673" x2="50.61225" y2="143.58889" gradientUnits="userSpaceOnUse">
      <stop offset="0" stop-color="#a86d65"/>
      <stop offset="1" stop-color="gray"/>
    </linearGradient>
    <linearGradient id="b" x1="35.38124" y1="123.75267" x2="34.3856" y2="138.08979" xlink:href="#a"/>
    <linearGradient id="c" x1="46.98632" y1="43.94618" x2="48.7285" y2="36.4299" gradientUnits="userSpaceOnUse">
      <stop offset="0" stop-color="#c98a40"/>
      <stop offset="1" stop-color="gray"/>
    </linearGradient>
    <linearGradient id="d" x1="45.89436" y1="50.69049" x2="44.45066" y2="42.22742" gradientUnits="userSpaceOnUse">
      <stop offset="0" stop-color="#ffdfc2"/>
      <stop offset="1" stop-color="gray"/>
    </linearGradient>
    <linearGradient id="e" x1="46.02656" y1="45.39742" x2="42.70774" y2="34.24578" gradientUnits="userSpaceOnUse">
      <stop offset="0" stop-color="#ffd4c2"/>
      <stop offset="1" stop-color="gray"/>
    </linearGradient>
    <linearGradient id="f" x1="38.49912" y1="51.60698" x2="31.67878" y2="35.6265" xlink:href="#c"/>
    <linearGradient id="g" x1="48.29666" y1="33.74252" x2="46.30582" y2="32.29917" gradientUnits="userSpaceOnUse">
      <stop offset="0" stop-color="#fff"/>
      <stop offset="1"/>
    </linearGradient>
    <linearGradient id="h" x1="41.97606" y1="36.87633" x2="40.43318" y2="34.08918" xlink:href="#g"/>
    <clipPath id="i">
      <path class="a" d="M180.11429,119.3994s-1.7686-3.0645-5.5079-17.8027c-3.7402-14.733-3.7246-17.1607-6.39739-20.8404a31.98245,31.98245,0,0,1-2.81151-4.123c-2.7998,2.0659-7.7246,2.7627-11.1172.6318-2.7998,3.1851-5.5205,7.2783-6.86529,15.4141-1.44231,8.7241-3.76951,19.4834-7.06641,23.7485,0,0-.5244,2.7842,6.7637,6.7285-.331.7783-.6807,1.5171-1.0469,2.1914a33.35009,33.35009,0,0,0,17.9014,2.9073s-.0156-.2725-.0576-.771l.0576-.0069c8.9824-.6758,11.667-3.3911,11.667-3.3911-.1426-.2622-.294-.5762-.4531-.9297C180.11429,121.1328,180.11429,119.3994,180.11429,119.3994Z"/>
    </clipPath>
  </defs>
  <title>26636 [Converted]jai</title>
  <g class="b">
    <g>
      <g>
        <path class="c" d="M114.13179,133.6489a.89818.89818,0,0,1-.5595-.1953L37.54,73.0844a.89877.89877,0,0,1-.31931-.8994L51.93849,5.7109a.8996.8996,0,0,1,1.3886-.5469c.125.086,12.7344,8.7456,25.1026,17.5953,25.5127,18.2519,25.206,19.4375,24.9599,20.3896-.30759,2.54,6.7862,54.9072,11.6338,89.4751a.90084.90084,0,0,1-.8916,1.0249ZM39.09959,72.0244l73.8291,58.6196c-2.541-18.1611-11.4541-82.3271-11.3096-87.6577-1.6152-2.8848-29.8662-22.9629-48.2119-35.583Z"/>
        <path class="d" d="M89.36819,32.5971c-8.2266,1.1119-34.7578-16.0419-48.126-5.3476-13.36819,10.6948-12.833,33.1538,8.0215,37.4316,20.8535,4.2783,33.6875,18.1812,21.9238,34.7578-11.7637,16.5772-17.6143,33.9834,1.8867,40.2525,19.5029,6.2695,26.9893-41.3218,41.42681-47.7388s45.98729,1.0693,50.79979-19.2505-23.5293-13.9028-23.5293-26.7363c0-12.834,0-42.2441-19.25-43.8491C103.27149.5132,109.15429,29.9233,89.36819,32.5971Z"/>
        <path class="e" d="M191.64259,156.6631s-35.001,10.2421-35.60059,10.686c-.60161.4429-60.53711,4.2905-83.63871,4.2905C45.52049,171.6396,0,166.396,0,166.396l21.57319-10.8404s5.3672-.5561,13.4131-1.2578c14.1963-1.2417,36.7305-2.959,52.8233-2.959,19.3535,0,77.9677,3.1368,95.3467,4.5933C188.42189,156.375,191.64259,156.6631,191.64259,156.6631Z"/>
        <polygon class="f" points="126 86.407 112.95 64.807 131.85 29.257 134.55 75.607 126 86.407"/>
        <g>
          <path class="c" d="M16.19919,70.2075a.90006.90006,0,0,1-.1426-1.7886l13.9502-2.25a.8999.8999,0,1,1,.28621,1.7769l-13.94921,2.25A.92272.92272,0,0,1,16.19919,70.2075Z"/>
          <path class="c" d="M33.29979,52.2075a.89918.89918,0,0,1-.3389-.0664l-12.1504-4.9502a.9.9,0,1,1,.6788-1.667l12.1503,4.9497a.90041.90041,0,0,1-.3398,1.7339Z"/>
          <path class="c" d="M20.69919,59.8574a.90007.90007,0,0,1-.0381-1.7993l10.3506-.4497a.9.9,0,0,1,.0772,1.7983l-10.3506.4507Z"/>
        </g>
        <path class="g" d="M111.69819,13.6484A13.6489,13.6489,0,1,1,98.04979,0,13.64909,13.64909,0,0,1,111.69819,13.6484Z"/>
      </g>
      <g class="h">
        <g>
          <path class="i" d="M114.85739,83.2817a1.51661,1.51661,0,1,1,0,2.1436A1.51722,1.51722,0,0,1,114.85739,83.2817Z"/>
          <path class="i" d="M113.082,81.5049a4.02909,4.02909,0,1,1-.00391,5.6987A4.03306,4.03306,0,0,1,113.082,81.5049Zm5.27349,5.2749a3.43025,3.43025,0,1,0-4.85349-.001A3.43168,3.43168,0,0,0,118.35549,86.7798Z"/>
        </g>
        <g>
          <rect class="j" x="74.74319" y="46.0595" width="4.92381" height="1.356"/>
          <rect class="j" x="85.13959" y="46.0595" width="5.2266" height="1.356"/>
          <rect class="j" x="81.72559" y="39.208" width="1.3555" height="4.7925"/>
          <rect class="j" x="81.72559" y="49.4702" width="1.3555" height="4.6455"/>
          <path class="j" d="M82.40329,43.3227a3.41235,3.41235,0,1,1-3.414,3.4146A3.41757,3.41757,0,0,1,82.40329,43.3227Zm0,5.4702a2.0576,2.0576,0,1,0-2.0586-2.0556A2.05812,2.05812,0,0,0,82.40329,48.7929Z"/>
        </g>
        <g>
          <rect class="i" x="2.00879" y="26.3198" width="1.8164" height="1.0703"/>
          <rect class="i" x="5.84469" y="26.3198" width="1.9278" height="1.0703"/>
          <rect class="i" x="4.30179" y="24.0766" width="1.0703" height="1.7676"/>
          <rect class="i" x="4.30179" y="27.8628" width="1.0703" height="1.7148"/>
          <path class="i" d="M4.83689,25.3091A1.5444,1.5444,0,1,1,3.29,26.855,1.54686,1.54686,0,0,1,4.83689,25.3091Zm0,2.0185a.47411.47411,0,1,0-.4765-.4726A.47366.47366,0,0,0,4.83689,27.3276Z"/>
        </g>
        <g>
          <rect class="i" x="1.31049" y="91.01195" width="6.44151" height="0.7168"/>
          <rect class="i" x="4.17379" y="88.14915" width="0.7168" height="6.4419"/>
        </g>
        <g>
          <rect class="i" x="150.46346" y="11.85756" width="0.71662" height="2.73089" transform="translate(34.82485 110.52032) rotate(-45.00015)"/>
          <rect class="i" x="153.88235" y="15.27594" width="0.71574" height="2.73177" transform="translate(33.40862 113.93889) rotate(-45.00015)"/>
          <rect class="i" x="152.87464" y="12.86463" width="2.73021" height="0.71623" transform="translate(35.97449 113.11303) rotate(-45.08532)"/>
          <rect class="i" x="149.45443" y="16.28396" width="2.73177" height="0.71573" transform="translate(32.35985 111.46184) rotate(-44.9717)"/>
          <path class="i" d="M153.52929,13.935a1.411,1.411,0,1,1-1.9961,0A1.41172,1.41172,0,0,1,153.52929,13.935ZM152.041,15.4233a.69363.69363,0,1,0,0-.9814A.69332.69332,0,0,0,152.041,15.4233Z"/>
        </g>
        <g>
          <rect class="i" x="15.59539" y="12.45619" width="0.71641" height="2.60367" transform="translate(-5.05531 15.31566) rotate(-45.014)"/>
          <rect class="i" x="19.5368" y="16.31881" width="0.71644" height="2.76323" transform="translate(-6.68857 19.25908) rotate(-45.01475)"/>
          <rect class="i" x="18.54703" y="13.42594" width="2.53289" height="0.71541" transform="translate(-3.9437 18.04503) rotate(-44.99434)"/>
          <rect class="i" x="14.77689" y="17.23376" width="2.45691" height="0.71609" transform="translate(-7.75349 16.51454) rotate(-45.10739)"/>
          <path class="i" d="M19.17289,14.4262a1.80369,1.80369,0,1,1-2.5508,0A1.806,1.806,0,0,1,19.17289,14.4262Zm-2.045,2.044a1.08725,1.08725,0,1,0,0-1.5381A1.08629,1.08629,0,0,0,17.12789,16.4702Z"/>
        </g>
        <g>
          <rect class="i" x="183.84909" y="87.6057" width="0.71679" height="1.6728" transform="translate(-8.57057 156.19918) rotate(-45.0121)"/>
          <rect class="i" x="186.38232" y="90.08769" width="0.71679" height="1.77427" transform="translate(-9.64732 158.65239) rotate(-44.98858)"/>
          <rect class="i" x="185.87616" y="88.09971" width="1.62656" height="0.71609" transform="translate(-7.93066 157.74511) rotate(-44.94908)"/>
          <rect class="i" x="183.45456" y="90.54552" width="1.5772" height="0.7175" transform="translate(-10.25684 157.07737) rotate(-45.05082)"/>
          <path class="i" d="M186.36719,88.7793a1.28732,1.28732,0,1,1-1.8223.0009A1.29034,1.29034,0,0,1,186.36719,88.7793Zm-1.3125,1.3139a.57053.57053,0,1,0-.002-.8061A.569.569,0,0,0,185.05469,90.0932Z"/>
        </g>
      </g>
      <g>
        <g>
          <path class="k" d="M167.13379,40.0307a17.59334,17.59334,0,0,1-6.21879.2486c-1.66891-.312-3.95891-2.2461-5.72071-4.1109a18.391,18.391,0,0,1-2.4121-3.0278h-.0058c-.169-.292-.2432-.5073-.2061-.6035a11.37475,11.37475,0,0,1,1.9854-2.2476c.2431-.229.4082-.3794.4082-.3794s.6933-2.5405,1.7724-3.1552c1.0791-.6158,11.5186,1.6362,12.7725,3.5556.4433.6861.7705,3.2017.95121,6.7119a278.04,278.04,0,0,1-.45221,28.3013s-20.2471,4.272-19.5586-.7778c.7403-5.4224,1.63481-20.1148,1.627-20.3526a3.59132,3.59132,0,0,0,1.2226.5318,15.19554,15.19554,0,0,0,1.3467,2.0083,10.56451,10.56451,0,0,0,3.3018,2.7802s1.9199.9937,3.166.2745a9.617,9.617,0,0,0,3.42971-3.1265,14.01458,14.01458,0,0,0,1.26559-2.3272l.0039.001c2.48051-.7988,2.709-3.6308,1.0039-2.9521C166.92969,40.9536,167.03609,40.5053,167.13379,40.0307Z"/>
          <path class="l" d="M167.47659,43.1723a3.26513,3.26513,0,0,1-1.6641,1.1631l-.0039-.001a14.01458,14.01458,0,0,1-1.26559,2.3272,9.617,9.617,0,0,1-3.42971,3.1265c-1.2461.7192-3.166-.2745-3.166-.2745a10.56451,10.56451,0,0,1-3.3018-2.7802,15.19554,15.19554,0,0,1-1.3467-2.0083c-.0302-.0069-.0576-.0171-.0879-.0249a34.4348,34.4348,0,0,1-.0263,10.9985l12.7207,3.1729A97.58624,97.58624,0,0,0,167.47659,43.1723Z"/>
          <path class="k" d="M170.51269,38.143a20.33646,20.33646,0,0,1-3.0498,1.8169c.0117.4517.0215.9034.0225,1.3545.5654.1656.582,1.0513-.0088,1.8579a231.99924,231.99924,0,0,1-2.3838,24.2217s4.999-.6816,5.4199-2.0703C172.49119,58.8081,170.76459,44.188,170.51269,38.143Z"/>
          <path class="m" d="M152.377,39.3423a13.56378,13.56378,0,0,1,2.81729-3.1739,18.391,18.391,0,0,1-2.4121-3.0278h-.0058c-.1436.0894-2.7285,1.584-3.083,3.0078a3.30452,3.30452,0,0,0,.3349,2.0327c.8203,2.0474,2.668,5.3614,2.668,5.3614A12.27607,12.27607,0,0,1,152.377,39.3423Z"/>
          <path class="m" d="M152.377,39.3423a6.75822,6.75822,0,0,1,.43749-.6602,33.46942,33.46942,0,0,0-.3702-5.3379c-.7402.4697-2.4648,1.6577-2.7509,2.8042a3.30452,3.30452,0,0,0,.3349,2.0327c.6719,1.6753,2.0303,4.1958,2.502,5.0576.01071-.1064.0224-.2143.0312-.3212A11.93182,11.93182,0,0,1,152.377,39.3423Z"/>
        </g>
        <g>
          <path class="n" d="M146.67479,58.0151c.6816-1.0127,1.2813-1.8784,1.71-2.4888,2.1767-3.0991,4.8994-1.646,6.1601-1.646a23.17646,23.17646,0,0,1-3.1045,9.5499c.1055-2.9356-1.2568-2.5616-2.8515-1.0557-5.5342,11.0244-15.9815,11.4726-15.9815,11.4726l-2.6318-1.2202C138.72849,69.1977,140.01659,68.9946,146.67479,58.0151Z"/>
          <g>
            <path class="n" d="M131.248,72.3584l-4.20991,1.2265.001.0005c-2.461.6504-3.8809,1.2378-3.4903,1.4336a8.33947,8.33947,0,0,0,2.7979-.0864c-1.67869.7685-2.55569,1.3398-2.208,1.4565a6.58256,6.58256,0,0,0,2.1426-.312c-1.0674.5425-1.57229.9253-1.295,1.0186a10.50351,10.50351,0,0,0,3.72171-.814c-1.39551.7866-2.11721,1.3472-1.81151,1.4194a9.55172,9.55172,0,0,0,3.6738-1.2856,5.36234,5.36234,0,0,0,2.501-2.6709Z"/>
            <path class="n" d="M130.57909,72.1465c-2.3164.6123-2.6436,1.0405-3.99509.5454-.97271-.3555-.51861.4399-.03911.6479a6.37567,6.37567,0,0,1,1.5059.7578,2.22229,2.22229,0,0,0,3.28321-.7441S131.624,71.8701,130.57909,72.1465Z"/>
          </g>
          <path class="o" d="M151.31249,62.0801a4.35313,4.35313,0,0,1,.1279,1.3501,23.17646,23.17646,0,0,0,3.1045-9.5499c-.0293,0-.0625-.0034-.0928-.0063A20.93237,20.93237,0,0,1,151.31249,62.0801Z"/>
        </g>
        <g>
          <g>
            <path class="p" d="M147.457,43.289c1.40919.669-1.43361,13.9058-9.15721,13.1304,1.6211-3.2178,1.0635-4.7583-.043-6.2598C142.749,50.394,146.65229,42.9072,147.457,43.289Z"/>
            <g>
              <path class="q" d="M138.25679,50.1596c1.1065,1.5015,1.6641,3.042.043,6.2598a6.09049,6.09049,0,0,0,2.2061-.1772,2.72989,2.72989,0,0,0,.125-.4053,7.89517,7.89517,0,0,0-1.46389-5.7354A4.19038,4.19038,0,0,1,138.25679,50.1596Z"/>
              <path class="q" d="M147.457,43.289c-.24411-.1142-.77051.4888-1.51171,1.3785a5.39734,5.39734,0,0,1,1.80471.6987C147.875,44.2363,147.77439,43.4399,147.457,43.289Z"/>
              <path class="q" d="M144.90229,45.916a3.15243,3.15243,0,0,1,1.01471.456,10.29209,10.29209,0,0,1,1.40719,1.1744c.1182-.44.2129-.8594.2881-1.2574a5.27444,5.27444,0,0,0-2.23729-.9326C145.22359,45.5381,145.06539,45.7246,144.90229,45.916Z"/>
              <path class="q" d="M145.32909,47.376a2.95258,2.95258,0,0,0-1.3594-.4209c-.0683.0722-.13469.144-.2041.2153a11.96354,11.96354,0,0,1,2.81641,2.5762q.1875-.46665.34769-.9292A7.06513,7.06513,0,0,0,145.32909,47.376Z"/>
              <path class="q" d="M143.31249,47.626a13.87,13.87,0,0,1-1.4033,1.2021,12.58371,12.58371,0,0,1,2.2969,4.9331,14.19338,14.19338,0,0,0,2.082-3.3433A11.13446,11.13446,0,0,0,143.31249,47.626Z"/>
              <path class="q" d="M140.66019,49.6011a9.47208,9.47208,0,0,1,1.4453,5.9677,7.62785,7.62785,0,0,0,.7099-.4848c.1748-1.8482-.9043-3.8213-2.1357-5.4942Z"/>
            </g>
            <path class="r" d="M147.73729,43.7754a.67441.67441,0,0,0-.28029-.4864c-.80471-.3818-4.708,7.105-9.20021,6.8706a4.94329,4.94329,0,0,1,1.002,2.1358C143.40819,51.687,146.543,47.7988,147.73729,43.7754Z"/>
            <path class="p" d="M122.42679,28.1924c.625.6445-5.2539,6.8056-3.5049,10.9795-1.0313.3945-3.6641,1.6206-4.46189,4.1059C107.23339,35.562,121.22749,26.9575,122.42679,28.1924Z"/>
            <path class="r" d="M116.62109,39.9297c-2.416-4.5616,1.2305-9.7178,5.5303-11.8501-2.2823-.2564-14.5547,7.8715-7.69139,15.1982a5.98472,5.98472,0,0,1,2.36619-2.9966C116.75489,40.1665,116.68649,40.0503,116.62109,39.9297Z"/>
            <g>
              <path class="q" d="M122.42679,28.1924c-.3916-.4048-2.1504.248-4.087,1.5722a8.06524,8.06524,0,0,1,3.03721.6875C122.10639,29.2612,122.63869,28.4096,122.42679,28.1924Z"/>
              <path class="q" d="M116.03029,31.6328c-.1602.1538-.3194.31-.4766.4707.0899-.0156.1768-.0366.2656-.0498a6.75673,6.75673,0,0,1,4.0088.4404c.1133.0083.2256.02.3408.0313.0987-.187.2002-.3706.3018-.5513A7.87441,7.87441,0,0,0,116.03029,31.6328Z"/>
              <path class="q" d="M115.02729,33.2822c-.2168.0542-.4306.1162-.6464.1792-.1182.1558-.2315.314-.3418.4727a11.70656,11.70656,0,0,1,1.458-.7456C115.34079,33.2182,115.18359,33.2431,115.02729,33.2822Z"/>
              <path class="q" d="M112.56349,37.1865a6.60519,6.60519,0,0,0-.14649,1.0356,7.98215,7.98215,0,0,1,6.65719-3.2714c.09381-.2749.2031-.5474.3174-.8189-.043,0-.084-.0024-.126-.0015A10.32546,10.32546,0,0,0,112.56349,37.1865Z"/>
              <path class="q" d="M118.69139,36.4145c.0205-.1269.0449-.2549.0742-.3833a7.51637,7.51637,0,0,0-6.2353,3.7627,6.50031,6.50031,0,0,0,.1738.6397A7.84121,7.84121,0,0,1,118.69139,36.4145Z"/>
              <path class="q" d="M116.68549,37.7231A5.97414,5.97414,0,0,0,113.21,41.582a8.51125,8.51125,0,0,0,1.25,1.6958c.79779-2.4853,3.43059-3.7114,4.46189-4.1059a4.52023,4.52023,0,0,1-.3194-1.9336A7.34107,7.34107,0,0,0,116.68549,37.7231Z"/>
            </g>
            <path class="s" d="M114.875,44.5635c-.07521.247-.16311.4975-.25881.7529-8.6933,3.8159-8.6933-3.8081-11.7676-3.7959-1.4697.5703-1.26659,3.103-1.26659,3.103-.51751-1.7925-.33-5.0107,1.89849-5.9697C105.02639,37.9883,105.28909,44.8911,114.875,44.5635Z"/>
            <path class="t" d="M114.61619,45.3164c-.3144.8476-.6973,1.7246-1.126,2.6055l-.0048.0029a8.44545,8.44545,0,0,1-5.0333,2.2666c-3.5087.3891-5.874-2.1109-6.87009-5.5679,0,0-.20311-2.5327,1.26659-3.103C105.92289,41.5083,105.92289,49.1323,114.61619,45.3164Z"/>
            <path class="u" d="M109.13669,48.4487a8.13991,8.13991,0,0,0,4.1387-.3296c.0732-.0639.14261-.1284.21-.1943l.0048-.0029c.4287-.8809.8116-1.7579,1.126-2.6055-8.6933,3.8159-8.6933-3.8081-11.7676-3.7959a2.11353,2.11353,0,0,0-1.1582,1.6504,1.09488,1.09488,0,0,1,.1299.0552c1.7324,1.2124,3.2383,2.9501,4.8145,4.2998A8.75033,8.75033,0,0,0,109.13669,48.4487Z"/>
            <path class="u" d="M108.707,48.8784c-.12591-.0327-.24511-.0762-.36811-.1148a5.3745,5.3745,0,0,0,2.6406.7945,8.32827,8.32827,0,0,0,.7617-.3667c.1201-.0659.2656-.1528.42381-.2529A7.58976,7.58976,0,0,1,108.707,48.8784Z"/>
            <path class="u" d="M106.418,47.7539a1.85124,1.85124,0,0,0,1.02149,1.7925,4.64555,4.64555,0,0,0,3.1113.1772,8.19175,8.19175,0,0,0,1.1904-.5322,8.771,8.771,0,0,0,1.7442-1.2666l.0048-.0029c.4287-.8809.8116-1.7579,1.126-2.6055-3.3545,1.4726-5.4121,1.2392-6.8545.3994A2.38106,2.38106,0,0,0,106.418,47.7539Z"/>
            <path class="s" d="M143.27929,62.457c1.6602,1.3218,5.2646,2.6006,3.7314,5.3799-1.1796,2.1323-5.5996,1.6294-7.6953.7895a12.44218,12.44218,0,0,1-3.2402-1.9116,9.40707,9.40707,0,0,1-2.15919-2.4492,6.57675,6.57675,0,0,1-.873-2.3901c-.34571-2.3174.38279-5.9419,3.03219-6.0376v.0039a7.94811,7.94811,0,0,0,2.2246.5776.2096.2096,0,0,1-.0146.0313C141.26369,57.3716,140.90629,60.5703,143.27929,62.457Z"/>
            <path class="v" d="M135.21679,56.0156a6.89869,6.89869,0,0,0,.3623,5.4722c1.3057,2.3056,4.75391,3.2397,6.8525,1.3823a5.09588,5.09588,0,0,0,.5997-.6338c-2.0958-1.9072-1.878-4.8999-4.7461-5.7856a.2096.2096,0,0,0,.0146-.0313,7.94811,7.94811,0,0,1-2.2246-.5776v-.0039A2.616,2.616,0,0,0,135.21679,56.0156Z"/>
            <path class="w" d="M135.13179,56.9282a8.87918,8.87918,0,0,0,.1524,9.02c.0527.0752.1123.1441.167.2168q.30165.2856.624.5498a12.44218,12.44218,0,0,0,3.2402,1.9116c1.9375.7769,5.8565,1.2598,7.3692-.3554a10.23639,10.23639,0,0,1-4.1768-.4912C140.89939,67.185,133.43849,63.2573,135.13179,56.9282Z"/>
            <path class="x" d="M114.875,44.5635c.07619-.2276.14449-.4498.208-.6734-.22261-.2026-.43071-.4101-.623-.6123.79779-2.4853,3.43059-3.7114,4.46189-4.1059.2588-.1006.4189-.147.4189-.147a3.41472,3.41472,0,0,0,3.1328,1.7466c8.35941-1.0274,10.8213,3.7436,11.81941,5.8632a7.85564,7.85564,0,0,0,3.74119,3.2305c.0762.0991.1513.1943.2226.2944,1.1065,1.5015,1.6641,3.042.043,6.2598a7.94811,7.94811,0,0,1-2.2246-.5776v-.0039c-2.6494.0957-3.3779,3.7202-3.03219,6.0376a6.57675,6.57675,0,0,0,.873,2.3901c-4.083,4.7666-11.88471,7.5107-14.584,8.3511.82429-5.2168-6.00971-6.0967-7.67871-7.21-1.7402-1.1533-2.1826-5.9009-5.7304-5.9009a71.65515,71.65515,0,0,0,7.5625-11.581l.0048-.0029c.4287-.8809.8116-1.7579,1.126-2.6055C114.71189,45.061,114.79979,44.8105,114.875,44.5635Z"/>
            <g>
              <path class="y" d="M132.65329,43.958a2.35971,2.35971,0,0,1-1.2295.5571c-.9492.1636-1.8242-.625-2.58879-.4692-2.29891.457-1.07621,3.2573-2.77151,4.1855-2.3906,1.3072-4.418-1.2221-3.9951-3.7163.1679-.9712.5898-2.4243.7558-3.7817C128.18549,40.1665,131.04979,42.0312,132.65329,43.958Z"/>
              <path class="y" d="M133.92769,57.0254l.0284.02a7.20744,7.20744,0,0,0-.91309,4.8301,6.57675,6.57675,0,0,0,.873,2.3901c-3.289,3.8389-8.98921,6.3677-12.49311,7.646a12.6885,12.6885,0,0,0-.3028-1.936c-.3428-1.0542-1.5117-2.023-2.0478-3.0186a5.56821,5.56821,0,0,1,.4355-6.3994,19.751,19.751,0,0,0,2.8154-3.2534c.7041-1.2115,1.2344-2.5537,1.9444-3.7642,1.289-2.206,6.0517-5.4365,8.0947-2.2925.7773,1.1934.2598,2.5.3223,3.73A3.04359,3.04359,0,0,0,133.92769,57.0254Z"/>
            </g>
            <path class="z" d="M120.83889,40.4643a4.05809,4.05809,0,0,1-1.4981-1.4394s-.1601.0464-.4189.147a7.886,7.886,0,0,0-4.167,3.4067C116.73629,43.2964,119.44429,41.9702,120.83889,40.4643Z"/>
            <path class="z" d="M111.62889,61.7856a17.05263,17.05263,0,0,1-1.7812.9321c.27631.5264.5332,1.0474.8027,1.5005a14.09342,14.09342,0,0,0,1.2051-1.1333,33.64538,33.64538,0,0,0,3.3896-4.0742A23.95882,23.95882,0,0,1,111.62889,61.7856Z"/>
            <path class="z" d="M138.25679,50.1596c-.0713-.1001-.1464-.1953-.2226-.2944a7.85564,7.85564,0,0,1-3.74119-3.2305c-.94531-2.0073-3.209-6.393-10.55471-5.9741a7.97924,7.97924,0,0,1-4.3526,3.814,8.33063,8.33063,0,0,1-4.5146.0991c-.0752.2441-.1592.4907-.2549.7427-.3144.8476-.6973,1.7246-1.126,2.6055l-.0048.0029a71.65515,71.65515,0,0,1-7.5625,11.581,3.77307,3.77307,0,0,1,3.2334,2.0152,14.65626,14.65626,0,0,0,2.8388-1.6533,43.494,43.494,0,0,0,5.6924-5.0704c.0381-.038.0723-.08.1074-.1196.4697-.8306.95511-1.6518,1.5049-2.4321,1.1416-1.6245,2.6045-3.375,4.6445-3.8189,4.0352-.8769,7.7012,2.0074,11.63871,2.2998a7.54512,7.54512,0,0,0,2.84379-.3276C138.37209,50.3178,138.31539,50.2387,138.25679,50.1596Z"/>
            <path class="v" d="M138.25679,50.1596c-.0713-.1001-.1464-.1953-.2226-.2944a7.85564,7.85564,0,0,1-3.74119-3.2305,10.58529,10.58529,0,0,0-2.84281-3.8725A24.23521,24.23521,0,0,1,134.248,56.6904a2.54547,2.54547,0,0,1,1.82719-.8525v.0039a7.94811,7.94811,0,0,0,2.2246.5776C139.92089,53.2016,139.36329,51.6611,138.25679,50.1596Z"/>
            <path class="v" d="M132.97269,60.3984a18.55415,18.55415,0,0,1-3.3819,4.3804,8.64424,8.64424,0,0,1-8.3027,2.0332c-2.1807-.7359-5.5127-1.2637-7.5557-2.9551-2.7549-2.2827-4.23039-5.6577-7.4209-4.8481-.1406.1811-.2734.351-.3886.497,3.5478,0,3.9902,4.7476,5.7304,5.9009,1.669,1.1133,8.503,1.9932,7.67871,7.21,2.69929-.8404,10.501-3.5845,14.584-8.3511a6.57675,6.57675,0,0,1-.873-2.3901A7.944,7.944,0,0,1,132.97269,60.3984Z"/>
            <path class="aa" d="M103.83589,72.3823c3.1895,3.4756,6.2979,4.6152,8.877,4.5552C109.31739,79.5737,103.37889,77.3105,103.83589,72.3823Z"/>
            <path class="ab" d="M103.83589,72.3823a4.968,4.968,0,0,0,2.99711,5.1162,5.80537,5.80537,0,0,1-1.51761-3.6675A19.12912,19.12912,0,0,1,103.83589,72.3823Z"/>
            <path class="t" d="M103.83589,72.3823c-.0156-.0156-.0273-.0327-.04389-.0479a9.85464,9.85464,0,0,1-2.21881-3.8945c-1.3046-4.4819,1.0674-8.9341,4.3497-8.9341,3.5478,0,3.9902,4.7476,5.7304,5.9009,1.669,1.1133,8.503,1.9932,7.67871,7.21-.26271,1.6684-2.90231,4.2378-6.61911,4.3208C110.13379,76.9975,107.02539,75.8579,103.83589,72.3823Z"/>
            <path class="ac" d="M114.208,66.4712c.21489.3901.41989.7856.60249,1.187,1.3809,3.0361,1.128,6.5298-2.6982,7.354a9.44666,9.44666,0,0,1-7.7891-2.1206c3.0176,3.0752,5.9405,4.1025,8.3897,4.0459,3.7168-.083,6.3564-2.6524,6.61911-4.3208C119.90919,68.9673,116.73729,67.4399,114.208,66.4712Z"/>
            <path class="ad" d="M103.25289,63.4443c.628-1.2212,1.8535-2.3706,3.3145-1.9121a2.57724,2.57724,0,0,1,.9023.4302,5.63038,5.63038,0,0,1,1.4658,1.3877,17.25341,17.25341,0,0,0,1.5899,2.3642c.97561.9258,2.4707,1.2066,3.7012,1.649a9.56469,9.56469,0,0,1,2.8125,1.4663,8.97982,8.97982,0,0,1,2.3603,2.8549c-.081-4.3964-6.1826-5.2353-7.7461-6.2778-1.7402-1.1533-2.1826-5.9009-5.7304-5.9009-3.2823,0-5.6543,4.4522-4.3497,8.9341a9.85464,9.85464,0,0,0,2.21881,3.8945c.01659.0152.02829.0323.04389.0479a18.20007,18.20007,0,0,0,2.4414,2.2383C103.37209,71.8911,101.28519,67.268,103.25289,63.4443Z"/>
            <path class="s" d="M136.07519,66.7148c1.5879,14.9112-5.3447,36.4321-5.1533,46.3487.1386,7.1962-2.3701,14.5913-4.29789,18.8935a24.38128,24.38128,0,0,1-1.76361,3.3726c-1.19439,1.7378-4.1377,5.0737-9.15339,3.3735a13.28273,13.28273,0,0,1-2.99411-1.5015,17.50539,17.50539,0,0,0-5.4434-2.5214c5.626-8.4864-2.85149-10.0557-10.9609-7.9566-1.7607.9478-3.294,3.4487-3.8828,7.1528-3.2227-.02-7.09279-.0673-11.836-.2309-5.8017-.1953-11.1035-.458-15.8945-.6421-11.9004-.4419-20.6699-.3857-26.2568,2.4106a13.53658,13.53658,0,0,0-2.0069,1.2261c-7.2998,5.4248-11.2265,17.5864-7.4863,26.9458,0,0-3.1787,1.3096-4.1142,0-.9366-1.31-6.9248-15.3442-2.62109-29.3794,0,0-5.13681-31.8076-1.54111-46.2178,4.584-18.3476-3.4531-13.4555,4.3497-19.7641,3.5517-2.8755,12.3486,1.751,24.8857,0,12.5371-1.7534,41.4648-2.2432,51.6689.2153a9.85464,9.85464,0,0,0,2.21881,3.8945c.01659.0152.02829.0323.04389.0479-.457,4.9282,5.4815,7.1914,8.877,4.5552,3.7168-.083,6.3564-2.6524,6.61911-4.3208,2.69929-.8404,10.501-3.5845,14.584-8.3511A9.40707,9.40707,0,0,0,136.07519,66.7148Z"/>
            <g>
              <path class="ae" d="M26.91309,134.956c.7158,2.1289,2.3828,3.1861,1.8447,5.8623-.5537,2.7681-3.4746,3.2447-5.0859,5.3604-2.2461,2.9468-2.3457,6.3794-1.6055,9.7768-1.4111-5.6489-2.3271-13.7002.14361-21.749,0,0-.35841-2.2138-.82131-5.7388a3.22844,3.22844,0,0,1,4.3486.5347C27.44819,130.9096,26.208,132.8642,26.91309,134.956Z"/>
              <path class="ae" d="M69.542,110.1753c1.001,3.6211-2.46391,6.8471-2.61911,10.2954-.084,1.872.3017,3.9028-1.251,5.2539-2.0948,1.8281-6.1211.7993-8.29689-.3399-4.05761-2.1298-5.86621-5.6909-10.80081-6.4111-3.8193-.562-9.3388-.4272-7.9043-5.6157.917-3.3286,11.0723-3.1426,16.0977-4.8667C58.98539,107.0454,67.64649,103.3052,69.542,110.1753Z"/>
              <path class="ae" d="M94.43749,75.873c3.8193,2.606,6.0732,6.1905,2.81151,10.6587-3.55271,4.8735-9.55271,3.1543-13.85541,6.1372-4.376,3.0293-4.4717,8.6016-11.462,7.4829-5.7314-.9199-8.8418-6.2099-13.2334-9.3593-5.788-4.1534-9.9248-1.5401-15.15819,1.5102-3.50391,2.042-8.01751.6094-11.22951,2.7866-3.7519,2.545-3.93649,8.0454-6.9072,10.8731-1.4404,1.3745-3.708,1.3784-5.9219.7173-.247-6.9536-.0283-13.816,1.1875-18.691,4.584-18.3476-3.4531-13.4555,4.3497-19.7641,3.5517-2.8755,12.3486,1.751,24.8857,0,9.1641-1.2827,27.082-1.8877,40.0498-1.1636a8.36915,8.36915,0,0,1,1.3447,2.5933C92.30659,72.8037,91.46679,73.8481,94.43749,75.873Z"/>
              <path class="ae" d="M107.84669,107.8867c1.3574-1.6294,5.40431.019,3.5234,1.7754C109.96479,110.9765,105.99409,110.1084,107.84669,107.8867Z"/>
              <path class="ae" d="M118.69819,119.3637c2.3389,1.3179,4.8155,5.6226.8731,7.0166-3.0068,1.0645-5.3037-2.5078-6.9824-4.1411-2.3604-2.2983-4.3116-.9287-7.1397-1.0078-1.8916-.0517-4.4287-1.5058-2.9668-3.8637C105.65629,112.2514,115.25289,117.4116,118.69819,119.3637Z"/>
              <path class="ae" d="M131.39549,79.9736c1.04-3.4536,2.25-4.438,4.8223-5.1621-.708,13.8037-5.4561,30.0249-5.2959,38.252a34.74585,34.74585,0,0,1-.3467,5.4194h-.0039a6.21563,6.21563,0,0,1-4.3701-1.7393c-1.5166-1.3618-1.90819-3.1792-2.792-4.8945-.8028-1.561-1.7227-1.7647-3.1123-2.7451a7.44729,7.44729,0,0,1-3.0948-5.9297c-.3193-6.3955,3.2725-10.3589,7.7325-14.3486C128.13669,85.9638,130.12889,84.1616,131.39549,79.9736Z"/>
            </g>
            <g>
              <path class="v" d="M126.34379,81.0312c.0585-3.6538-.4463-7.2749-.6602-10.914-.0967.0468-.1943.0942-.292.1396,1.23241,14.6538-3.2119,22.9605-6.0478,34.3008-.1006.3457-.1905.7026-.2725,1.0649,1.6182-3.7636,3.2461-7.5244,4.5596-11.4087A43.97065,43.97065,0,0,0,126.34379,81.0312Z"/>
              <path class="v" d="M109.92379,131.0962c2.5371.4946,5.2158.2309,6.9239-1.878a16.27576,16.27576,0,0,0,3.3134-8.7314,19.29429,19.29429,0,0,0-1.1494-7.9458c-.2783.7095-.55469,1.4219-.8213,2.1372C117.84179,121.8764,117.25389,129.0595,109.92379,131.0962Z"/>
              <path class="v" d="M136.07519,66.7148a9.40707,9.40707,0,0,1-2.15919-2.4492,22.07641,22.07641,0,0,1-5.66011,4.4937c.165,4.3344.99511,8.6748.6953,13.0126a49.772,49.772,0,0,1-2.5576,12.4932c-1.752,5.1826-4.0362,10.1568-6.1377,15.2022a19.75777,19.75777,0,0,1,1.8935,13.3217c-.6982,3.1963-2.1982,8.0362-5.39839,9.6646a11.56324,11.56324,0,0,1-8.542.6162,15.19883,15.19883,0,0,1-.93951,1.6104,17.50539,17.50539,0,0,1,5.4434,2.5214,13.28273,13.28273,0,0,0,2.99411,1.5015c5.01569,1.7002,7.959-1.6357,9.15339-3.3735a24.38128,24.38128,0,0,0,1.76361-3.3726c1.92779-4.3022,4.43649-11.6973,4.29789-18.8935C130.73049,103.1469,137.66309,81.626,136.07519,66.7148Z"/>
            </g>
            <path class="af" d="M103.83589,72.3823c-.0156-.0156-.0273-.0327-.04389-.0479a9.85464,9.85464,0,0,1-2.21881-3.8945c-10.2041-2.4585-39.1318-1.9687-51.6689-.2153-12.5371,1.751-21.334-2.8755-24.8857,0-4.5791,3.7012-3.7041,3.5488-3.1241,6.4951.4063,2.0757.668,5.687-1.2256,13.269C17.07319,102.3989,22.21,134.2065,22.21,134.2065c-4.30371,14.0352,1.68449,28.0694,2.62109,29.3794.54591.7637,1.8515.6367,2.8466.398a61.34227,61.34227,0,0,1-3.5166-11.6358c-1.1943-7.1694,3.1856-19.9131,3.1856-19.9131a90.15107,90.15107,0,0,1-3.0059-28.4433,54.45015,54.45015,0,0,1-.0674-15.2705c.5245-3.4888,2.2637-6.5713,3.4912-9.9151,2.9717-8.0981,38.8897.9986,56.5323-3.3222,5.9756-1.5933,11.5508,1.1953,17.125,1.9912a8.78717,8.78717,0,0,0,4.5097-.4966A4.89007,4.89007,0,0,1,103.83589,72.3823Z"/>
            <path class="v" d="M109.041,129.3745c.20219,1.3345-.29591,3.081-1.77151,5.3057a17.31131,17.31131,0,0,1,5.2676,2.4101C111.957,134.0361,111.09859,131.2261,109.041,129.3745Z"/>
            <path class="v" d="M72.06839,66.8037A27.38246,27.38246,0,0,1,67.085,68.644a12.90344,12.90344,0,0,1-8.06741-1.2998c-3.4981.2349-6.628.5318-9.1133.8804a43.54106,43.54106,0,0,1-6.5586.4038c-2.6299,18.9228-5.0225,37.6128-9.2285,57.4346a38.30818,38.30818,0,0,0-.49319,13.1767,18.63444,18.63444,0,0,1,2.80759-2.5996,13.53658,13.53658,0,0,1,2.0069-1.2261,18.03386,18.03386,0,0,1,2.8779-1.1176,25.21185,25.21185,0,0,1,.3711-3.6255c2.0049-.2974,4.1152-.6988,6.1621-1.0376.1309,1.1455.2783,2.2915.4609,3.4365,2.7081-.2305,5.7266-.2954,9.06451-.2568-.23141-1.6617-.41891-3.3033-.59081-4.9678,1.8252-.3794,3.6533-.9805,5.4795-1.2476-1.4414-16.2544-2.3418-32.4912-7.4678-48.0717,6.6602,2.6196,14.2139,2.6464,19.5449-3.042a12.60919,12.60919,0,0,0,3.0957-8.732C75.65039,66.7529,73.85349,66.77,72.06839,66.8037Z"/>
            <path class="v" d="M136.07519,66.7148a9.40707,9.40707,0,0,1-2.15919-2.4492c-4.083,4.7666-11.88471,7.5107-14.584,8.3511-.26271,1.6684-2.90231,4.2378-6.61911,4.3208-3.3955,2.6362-9.334.373-8.877-4.5552-.0156-.0156-.0273-.0327-.04389-.0479a9.85464,9.85464,0,0,1-2.21881-3.8945c-.4365-.1064-.9121-.206-1.415-.3003.71581,1.3736,1.4004,2.6621,1.96781,4.0406-1.04891,3.1357-.22461,6.9345,2.48339,8.4809,9.2929,4.2603,18.2099-2.7764,25.2861-7.9277a61.36175,61.36175,0,0,0,6.2998,2.5254A52.777,52.777,0,0,0,136.07519,66.7148Z"/>
            <path class="ag" d="M129.24019,161.1518H126.624c-8.60251-6.7368-10.917-22.4487-10.917-22.4487,5.01569,1.7002,7.959-1.6357,9.15339-3.3735a24.38128,24.38128,0,0,0,1.76361-3.3726C123.82029,146.7329,129.24019,161.1518,129.24019,161.1518Z"/>
            <path class="v" d="M122.998,147.0757a45.35427,45.35427,0,0,0,4.49709,10.7968c.4404.7637.9102,1.5327,1.4072,2.2984-1.1406-3.4815-4.6484-15.7193-2.27829-28.2139a24.38128,24.38128,0,0,1-1.76361,3.3726,9.99931,9.99931,0,0,1-2.6192,2.6543C122.34179,141.0298,122.19729,144.1147,122.998,147.0757Z"/>
            <path class="v" d="M125.84469,139.3735a47.03188,47.03188,0,0,1,.77931-7.4165,24.38128,24.38128,0,0,1-1.76361,3.3726c-1.19439,1.7378-4.1377,5.0737-9.15339,3.3735a52.85147,52.85147,0,0,0,1.89069,7.6768C121.13279,145.3452,123.93459,142.477,125.84469,139.3735Z"/>
            <path class="s" d="M96.30859,126.7236c8.10941-2.0991,16.5869-.5298,10.9609,7.9566-8.3164,11.6972-1.3466,27.7822-1.3466,27.7822l-3.7833.4262c-8.8417-12.1709-10.7529-22.4731-9.7138-29.0122C93.01459,130.1723,94.54789,127.6714,96.30859,126.7236Z"/>
            <path class="y" d="M96.13379,141.6137a.55362.55362,0,0,1,.0049-.0698,17.44933,17.44933,0,0,1,.1631-1.8481c.0048-.0357.0097-.0703.0127-.105.0097-.0708.0224-.1431.0322-.2139a25.51282,25.51282,0,0,1,1.414-5.48c.11531-.3012.2539-.6347.40431-.9965.21589-.5777.43169-1.1548.63969-1.7383a9.97751,9.97751,0,0,0,.7695-4.4429,3.46152,3.46152,0,0,0-.1445-.6167,27.35474,27.35474,0,0,0-3.1211.6211c-1.7607.9478-3.294,3.4487-3.8828,7.1528-.6192,3.897-.1895,9.1309,2.1299,15.3023a5.28747,5.28747,0,0,0,1.3291-1.8628C96.585,145.5,96.04489,143.5801,96.13379,141.6137Z"/>
            <path class="y" d="M101.21,128.3974a4.72429,4.72429,0,0,0,2.47159,2.938c1.11141.5762,2.7422,1.0171,3.8926.2671a4.53514,4.53514,0,0,0,1.51081-1.6343c.00779-3.0937-3.37021-4.2573-7.61231-4.0561A3.72627,3.72627,0,0,0,101.21,128.3974Z"/>
            <path class="v" d="M107.26949,134.6802a8.70411,8.70411,0,0,0,1.8106-4.8677c-3.9912.2041-6.6397,4.1806-7.9502,7.6538a27.01128,27.01128,0,0,0-1.0752,15.6738,21.11736,21.11736,0,0,0,4.9502,9.4258l.918-.1035S98.95309,146.3774,107.26949,134.6802Z"/>
            <path class="ah" d="M63.06639,137.81c4.7598,3.4663,1.4024,4.0274-1.3018,2.0635A13.47287,13.47287,0,0,0,63.06639,137.81Z"/>
            <path class="ah" d="M63.06639,137.81a13.47287,13.47287,0,0,1-1.3018,2.0635,12.33213,12.33213,0,0,1-3.8593,3.3613,12.61947,12.61947,0,0,1-2.7442,1.1285c-.1953.059-.3896.1064-.5849.1543a14.55852,14.55852,0,0,1-5.627.1621,15.48038,15.48038,0,0,1-1.9863-.462v-.0034q-.47895-.14355-.9453-.3217a13.62266,13.62266,0,0,1-4.1465-2.4654,10.92885,10.92885,0,0,1-1.9707-2.2593,9.47276,9.47276,0,0,1-1.4619-3.7539c5.5869-2.7963,14.3564-2.8525,26.2568-2.4106v.0059A17.87409,17.87409,0,0,1,63.06639,137.81Z"/>
            <path class="ac" d="M54.69529,137.2304a19.97522,19.97522,0,0,1,7.2803,2.354,13.47578,13.47578,0,0,0,1.0908-1.7744,17.87409,17.87409,0,0,0,1.6289-4.8007v-.0059c-11.9004-.4419-20.6699-.3857-26.2568,2.4106a9.38492,9.38492,0,0,0,1.0371,3.0401A36.6077,36.6077,0,0,1,54.69529,137.2304Z"/>
            <path class="ag" d="M62.19139,162.8886a4.54085,4.54085,0,0,1-3.5127,0,52.67511,52.67511,0,0,1-10.8135-16.1005,14.64256,14.64256,0,0,0,1.084-2.1084,14.55852,14.55852,0,0,0,5.627-.1621c.249.4179.4853.7846.7041,1.1069A38.61905,38.61905,0,0,0,62.19139,162.8886Z"/>
            <path class="v" d="M62.19139,162.8886a4.54085,4.54085,0,0,1-3.5127,0,52.67511,52.67511,0,0,1-10.8135-16.1005,14.64256,14.64256,0,0,0,1.084-2.1084,14.55852,14.55852,0,0,0,5.627-.1621c.249.4179.4853.7846.7041,1.1069A38.61905,38.61905,0,0,0,62.19139,162.8886Z"/>
            <path class="ah" d="M57.90529,143.2348c.6933,3.0787.2109,6.5259-2.625,2.3897-.0987-.8091-.1192-1.2612-.1192-1.2612A12.61947,12.61947,0,0,0,57.90529,143.2348Z"/>
            <path class="ah" d="M46.96289,144.2177v-.0034q-.47895-.14355-.9453-.3217c-.2432,2.8354.292,5.2846,1.8476,2.8955a14.64256,14.64256,0,0,0,1.084-2.1084A15.48038,15.48038,0,0,1,46.96289,144.2177Z"/>
            <path class="ah" d="M39.90039,139.1679a10.92885,10.92885,0,0,0,1.9707,2.2593c-4.8535,5.3521-5.252,1.7598-1.9756-2.2549Z"/>
            <g>
              <g class="ai">
                <path class="j" d="M103.13569,70.0503a.3982.3982,0,0,1-.3554-.2207,7.02447,7.02447,0,0,1-.6026-5.5469.39883.39883,0,0,1,.7481.2768,6.41015,6.41015,0,0,0,.5674,4.9136.39968.39968,0,0,1-.1787.5347A.41463.41463,0,0,1,103.13569,70.0503Z"/>
              </g>
              <g class="ai">
                <path class="j" d="M103.93749,62.1601a.39818.39818,0,0,1-.2588-.7007,3.83929,3.83929,0,0,1,1.1338-.6757.39884.39884,0,0,1,.2861.7446,3.09111,3.09111,0,0,0-.9023.5342A.39534.39534,0,0,1,103.93749,62.1601Z"/>
              </g>
            </g>
          </g>
          <g>
            <path d="M72.26369,74.415l-.5215-.29c.2432-.437.4775-.9141.6973-1.4151l.5468.2408C72.76069,73.4682,72.51659,73.9609,72.26369,74.415Z"/>
            <g>
              <path class="aj" d="M74.55959,71.2153c-.3067,1.2817-1.1348,2.1841-1.8477,2.0132s-1.041-1.3501-.7324-2.6333c.3076-1.2827,1.1348-2.1846,1.8476-2.0142C74.541,68.7524,74.86909,69.9306,74.55959,71.2153Z"/>
              <path class="ak" d="M73.89449,70.9902c-.2832,1.1738-1.039,2.001-1.6924,1.8442-.6523-.1567-.95409-1.2353-.6708-2.4106.2812-1.1743,1.039-2.001,1.6914-1.8442C73.876,68.7363,74.17679,69.8159,73.89449,70.9902Z"/>
              <path class="al" d="M72.50679,70.708c-.1533.6372-.5654,1.0889-.92179,1.0029-.35361-.0845-.51861-.6738-.36431-1.312.15331-.6396.5654-1.0884.9209-1.0024C72.49609,69.4804,72.66019,70.0678,72.50679,70.708Z"/>
            </g>
            <g>
              <g>
                <path class="am" d="M83.63179,66.0371c-.1689-.0513-.1523-.1226.1055-.1983a4.19111,4.19111,0,0,1,1.9951.0581c.7481.6192,1.6602.7422,1.6953.6109.043-.1646-.7226-.669-1.25969-1.1846a13.1542,13.1542,0,0,0-2.59181-.5722c-.7344-.1299-2.3223.6123-4.9834,1.0854a3.79011,3.79011,0,0,1-.3379.7559c2.87011-.0308,6.0058-.0606,8.8457-.0269A15.076,15.076,0,0,1,83.63179,66.0371Z"/>
                <path class="an" d="M78.73239,64.9087a2.99018,2.99018,0,0,1-.1523.8105,4.45219,4.45219,0,0,1-.374.835c-4.0254.0478-8.0479.1484-11.9219.3052l-.0166.0996c-11.0215-1.6192-15.4004-6.1446-15.4004-6.1446A19.2542,19.2542,0,0,0,51.75,56.4092c.06839-2.9278-4.20511-7.8536-5.94531-9.7398,0,0,3.31831-.0683,5.3301,1.856C53.14839,50.4536,61.64839,62.6338,78.73239,64.9087Z"/>
                <path class="ao" d="M54.55859,52.2763a20.04706,20.04706,0,0,1-.208,3.0918,16.244,16.244,0,0,0,6.9101,4.524c-1.6455,1.5805,1.0088,2.958,1.0088,2.958,3.958,1.7402,9.916,1.5722,14.461,1.7353A40.94527,40.94527,0,0,1,54.55859,52.2763Z"/>
                <path class="ap" d="M45.81149,46.6753c1.7422,1.8921,6.0069,6.8091,5.93851,9.7339a19.2542,19.2542,0,0,1-.88281,4.4052,14.32576,14.32576,0,0,0,2.8066,2.0357C54.82029,56.7866,51.89839,50.4082,45.81149,46.6753Z"/>
              </g>
              <path class="aq" d="M55.26269,165.8169a21.595,21.595,0,0,0,3.4111,1.3813,26.70542,26.70542,0,0,1-6.165,0,3.26008,3.26008,0,0,1-.1514-1.6606C52.47659,165.6006,54.69819,166.7002,55.26269,165.8169Z"/>
              <path class="aq" d="M36.23729,166.4106a14.85475,14.85475,0,0,0,3.166,1.5156,35.46324,35.46324,0,0,1-6.2851,0,4.11733,4.11733,0,0,1,.2314-2.1093C34.04589,166.727,36.35159,167.0073,36.23729,166.4106Z"/>
              <path class="am" d="M55.26269,165.8169c-.5645.8833-2.7861-.2163-2.9053-.2793a7.25911,7.25911,0,0,1,.1514-.9444c-3.3252-6.4941-6.415-24.3935-6.7969-36.8984a59.2914,59.2914,0,0,0,6.876-.1357,238.32306,238.32306,0,0,0,.8574,37.0341A8.29185,8.29185,0,0,0,55.26269,165.8169Z"/>
              <path class="ar" d="M55.26269,165.8169c-.5645.8833-2.7861-.2163-2.9053-.2793a7.25911,7.25911,0,0,1,.1514-.9444c-3.3252-6.4941-6.415-24.3935-6.7969-36.8984a59.2914,59.2914,0,0,0,6.876-.1357,238.32306,238.32306,0,0,0,.8574,37.0341A8.29185,8.29185,0,0,0,55.26269,165.8169Z"/>
              <path class="as" d="M45.71189,127.6948c.0274.9507.0752,1.9365.1338,2.9434A32.75155,32.75155,0,0,0,52.54,128.3515c.01569-.2631.03129-.5288.04789-.7924A59.2914,59.2914,0,0,1,45.71189,127.6948Z"/>
              <path class="am" d="M39.08009,127.1011c-1.3233,7.4194-4.0362,24.2216-4.20509,38.039a4.8778,4.8778,0,0,0,1.36229,1.2705c.1143.5967-2.1914.3164-2.8877-.5937a4.4798,4.4798,0,0,1,.2988-.6768s-5.5322-21.7578-1.789-39.4878A63.42942,63.42942,0,0,0,39.08009,127.1011Z"/>
              <path class="at" d="M39.08009,127.1011c-1.3233,7.4194-4.0362,24.2216-4.20509,38.039a4.8778,4.8778,0,0,0,1.36229,1.2705c.1143.5967-2.1914.3164-2.8877-.5937a4.4798,4.4798,0,0,1,.2988-.6768s-5.5322-21.7578-1.789-39.4878A63.42942,63.42942,0,0,0,39.08009,127.1011Z"/>
              <path class="as" d="M39.08009,127.1011a63.42942,63.42942,0,0,1-7.2207-1.4488c-.3018,1.4297-.542,2.8853-.7305,4.356a26.99143,26.99143,0,0,1,7.7285-1.6489C38.93549,127.9184,39.00979,127.4931,39.08009,127.1011Z"/>
              <path class="au" d="M54.15429,75.4199c5.8633,15.9141,3.7871,47.5044,3.7871,47.5044-1.1279.1987-2.2461.3574-3.3525.4849a58.66272,58.66272,0,0,1-7.9864.3515c1.9444-19.1479,2.1944-39.7261,2.5889-49.5268A19.1963,19.1963,0,0,0,54.15429,75.4199Z"/>
              <path class="ao" d="M54.15429,75.4199c-.6211-.0635-1.2236-.1597-1.8135-.2798a165.02108,165.02108,0,0,1,1.8086,48.3145c.1475-.0161.291-.0284.4395-.0454,1.1064-.1275,2.2246-.2862,3.3525-.4849C57.94139,122.9243,60.01759,91.334,54.15429,75.4199Z"/>
              <path class="ap" d="M54.57319,76.6289c-.1367-.4102-.2734-.8159-.4189-1.209a19.10314,19.10314,0,0,1-4.4834-1.0195h0c-.1582-.0567-.3223-.106-.4795-.1665-.0098.2524-.0195.5171-.0303.7846-.0048.1236-.0097.2491-.0127.3755-.0048.1167-.0088.2354-.0146.3535q-.01619.49155-.0342,1.0137c0,.0205-.0019.0415-.0019.0649h0c-.3536,10.5367-.7081,29.335-2.4952,46.9346.2784.0059.56251.0039.8418.0059.4952-3.0576.9034-6.1294,1.1983-9.2207.6845-7.2071.73041-14.4107,1.0205-21.6377.2158-5.3438.4844-10.7188.1855-16.0625A32.61953,32.61953,0,0,0,54.57319,76.6289Z"/>
              <path class="aq" d="M45.71189,127.6948a66.07384,66.07384,0,0,1-6.6318-.5937,63.42942,63.42942,0,0,1-7.2207-1.4488c-1.4815-.395-2.3086-.685-2.3086-.685s.5088-2.4263.7637-3.5284a71.40722,71.40722,0,0,0,16.288,2.3218,58.66272,58.66272,0,0,0,7.9864-.3515c-.1084,2.0351-.4004,4.0029-.4004,4.0029-.5371.0552-1.0703.1079-1.6006.147A59.2914,59.2914,0,0,1,45.71189,127.6948Z"/>
              <path class="av" d="M46.60249,123.7607a71.40722,71.40722,0,0,1-16.288-2.3218c-.2549,1.1021-.7637,3.5284-.7637,3.5284s.8271.29,2.3086.685c.05761.0156.122.0313.18161.0459a69.5274,69.5274,0,0,0,22.46679-1.1338c.0313-.3735.0586-.7617.0811-1.1552A58.66272,58.66272,0,0,1,46.60249,123.7607Z"/>
              <path class="au" d="M49.19139,45.4516c1.3174,1.4302,4.55661,5.1612,4.5039,7.3794a14.64476,14.64476,0,0,1-.668,3.3374,34.71068,34.71068,0,0,0-1.6845,10.7735v.0024q-.77205-.54195-1.5254-1.1582l.0039-.0029s-.1602-3.4854-.1602-7.3091a28.20681,28.20681,0,0,0-.7402-3.2534,72.71654,72.71654,0,0,0-.2861-10.3501h.0029S48.84859,45.0859,49.19139,45.4516Z"/>
              <path class="ap" d="M50.49119,66.3174c-.1601-1.8702-.1621-3.7715-.1777-5.6499-.02349-2.7989-.0821-5.6441-.3584-8.4288a26.52773,26.52773,0,0,0-.6543-4.8759c-.1807-.5938-.3945-1.1753-.5957-1.7603a73.39678,73.39678,0,0,1,.2158,9.6182,28.20681,28.20681,0,0,1,.7402,3.2534c0,3.8237.1602,7.3091.1602,7.3091l-.0039.0029C50.03809,65.9682,50.26559,66.1435,50.49119,66.3174Z"/>
              <path class="aw" d="M49.82129,65.7832l-.0039.0029a25.29728,25.29728,0,0,1-9.5117-17.8642s-4.9219-.503-7.5293,3.603A9.58841,9.58841,0,0,1,34.958,48.6938h.00389a22.069,22.069,0,0,1,4.3096-3.0547c1.5137.752,7.1992,4.0855,10.3896,12.835C49.66109,62.2978,49.82129,65.7832,49.82129,65.7832Z"/>
              <path class="ap" d="M40.56539,49.8994a25.20054,25.20054,0,0,0,9.252,15.8867l.0039-.0029s-.0811-1.7656-.1279-4.1592A34.32411,34.32411,0,0,1,40.56539,49.8994Z"/>
              <path class="ap" d="M49.24509,57.4043C46,49.4531,40.72069,46.3608,39.27149,45.6391c0,0-.2637.1363-.6797.3828A37.05526,37.05526,0,0,1,49.24509,57.4043Z"/>
              <path class="ax" d="M47.48439,29.5654a9.8606,9.8606,0,0,1-8.9268-.4268,11.78834,11.78834,0,0,1-1.9912-1.3823,5.06943,5.06943,0,0,1,5.7881-4.4912,4.6453,4.6453,0,0,1,2.31351.9595,5.18546,5.18546,0,0,0,5.44429.665A3.76225,3.76225,0,0,1,48.084,26.4829c.498.5293,2.95509,0,2.95509,0a6.60756,6.60756,0,0,1-2.4453,2.4902A9.854,9.854,0,0,1,47.48439,29.5654Z"/>
              <g>
                <path class="ay" d="M46.71089,26.2124a5.29741,5.29741,0,0,0,2.0948-.0552,3.40861,3.40861,0,0,0,1.3066-1.2676,5.18546,5.18546,0,0,1-5.44429-.665,4.6453,4.6453,0,0,0-2.31351-.9595,5.36008,5.36008,0,0,0-2.585.3115,7.09885,7.09885,0,0,1,3.4678,1.0342A10.80051,10.80051,0,0,0,46.71089,26.2124Z"/>
                <path class="az" d="M47.53319,28.2231c.3115-.1665.625-.3496.9375-.5425a8.34194,8.34194,0,0,1-4.665-.0254c-2.1309-.7382-5.1006-2.4257-7.0899-.6645l-.0019.0098C39.252,29.6406,44.55659,29.8301,47.53319,28.2231Z"/>
                <path class="ay" d="M44.59469,26.9839a8.81388,8.81388,0,0,0,2.4326.124,10.91558,10.91558,0,0,1-3.7226-1.4605c-2.0586-1.165-4.1494-1.437-5.8164-.3281-.0635.0879-.1182.187-.1758.2808C39.60349,24.7119,42.22269,26.4795,44.59469,26.9839Z"/>
              </g>
              <path class="ba" d="M48.29979,44.3125a2.634,2.634,0,0,1,.294.1679s.0156.1353.041.3902a72.71654,72.71654,0,0,1,.2861,10.3501,26.94888,26.94888,0,0,0-.9873-2.8071c.1553-1.355-.8369-6.2725-1.3311-8.5987A6.98771,6.98771,0,0,1,48.29979,44.3125Z"/>
              <path class="ap" d="M48.79689,54.8213c-.2461-3.5821-.5596-7.1636-1.1192-10.7456a9.34905,9.34905,0,0,0-1.0752-.2608c.4942,2.3262,1.4864,7.2437,1.3311,8.5987C48.24219,53.1621,48.53319,53.9648,48.79689,54.8213Z"/>
              <path class="ba" d="M48.92089,55.2207a28.20681,28.20681,0,0,1,.7402,3.2534c-3.1904-8.7495-8.8759-12.083-10.3896-12.835-.2432-.1211-.3779-.1753-.3779-.1753l2.5195-1.7919a12.44648,12.44648,0,0,1,1.7217,1.4682,22.48163,22.48163,0,0,1,4.7988,7.2735A26.94888,26.94888,0,0,1,48.92089,55.2207Z"/>
              <path class="bb" d="M48.55269,54.0664c-.1943-.5762-.4023-1.1304-.6191-1.6528a22.48163,22.48163,0,0,0-4.7988-7.2735,12.44648,12.44648,0,0,0-1.7217-1.4682l-2.5195,1.7919s.1347.0542.3779.1753c.1992.0987.4756.2461.8066.4424C44.32229,46.6162,46.72849,49.9814,48.55269,54.0664Z"/>
              <path class="bc" d="M48.59379,28.9731c3.6406,3.0855,3.7841,10.5049-.294,15.3394a6.98771,6.98771,0,0,0-1.6973-.4976c-.1591-.7529-.2666-1.2339-.2666-1.2339.2784.0191.5606.0269.8526.0269.8369-2.4092,2.5361-5.1992.2959-13.0425A9.854,9.854,0,0,0,48.59379,28.9731Z"/>
              <path class="bd" d="M48.59379,28.9731c3.6406,3.0855,3.7841,10.5049-.294,15.3394a6.98771,6.98771,0,0,0-1.6973-.4976c-.1591-.7529-.2666-1.2339-.2666-1.2339.2784.0191.5606.0269.8526.0269.8369-2.4092,2.5361-5.1992.2959-13.0425A9.854,9.854,0,0,0,48.59379,28.9731Z"/>
              <path class="be" d="M49.90429,30.4946a6.67035,6.67035,0,0,0-1.3105-1.5215,9.854,9.854,0,0,1-1.1094.5923c.1679.5942.3135,1.1563.4404,1.6948,1.5449,6.564.0371,9.1216-.7363,11.3477-.292,0-.5742-.0078-.8526-.0269,0,0,.1075.481.2666,1.2339a9.49661,9.49661,0,0,1,.9873.2329c2.12021-3.6172,2.3858-8.8291,1.1036-13.0317A10.62243,10.62243,0,0,0,49.90429,30.4946Z"/>
              <path class="aw" d="M49.19139,74.2339c-.3945,9.8007-.6445,30.3789-2.5889,49.5268a71.40722,71.40722,0,0,1-16.288-2.3218,62.5435,62.5435,0,0,1-9.8096-3.3457c2.0908-8.81,12.6396-39.0683,21.3994-48.6035A21.99378,21.99378,0,0,0,49.19139,74.2339Z"/>
              <path class="ao" d="M49.19139,74.2339a20.47619,20.47619,0,0,1-3.9551-2.0577c2.9434,17.1983,1.67,34.6036-2.52929,51.3824,1.26659.103,2.56739.1733,3.89549.2021C48.54689,104.6128,48.79689,84.0346,49.19139,74.2339Z"/>
              <path class="ap" d="M49.19139,74.2339a20.85377,20.85377,0,0,1-5.1269-2.8975h0q-.53173-.408-1.0401-.8384c-.039-.0327-.0791-.0669-.1201-.1011-.3418-.2954-.6777-.5961-1-.9072-.1397.1514-.2764.3067-.417.4678-.0166.019-.0342.0425-.0527.0635-.1201.1411-.2432.2842-.3653.4331-.0146.019-.0322.04-.0468.0586-.1241.1533-.251.31-.377.4702l-.0088.0137c-8.4804,10.8735-18.1406,38.7089-20.1318,47.0966a62.5435,62.5435,0,0,0,9.8096,3.3457c.3974.1026.8066.2037,1.2216.3047A177.16377,177.16377,0,0,1,42.38089,75.667a27.22012,27.22012,0,0,0,6.7168,1.1591C49.12889,75.896,49.15919,75.0278,49.19139,74.2339Z"/>
              <path class="am" d="M46.60249,43.8149c.4942,2.3262,1.4864,7.2437,1.3311,8.5987a22.48163,22.48163,0,0,0-4.7988-7.2735l.0068-.0073c-.05859-.5532-.1064-1.0513-.1865-1.5449a7.0777,7.0777,0,0,0-.6006-1.9556,11.09149,11.09149,0,0,0,3.9814.9487S46.44339,43.062,46.60249,43.8149Z"/>
              <path class="bf" d="M46.60249,43.8149c.4942,2.3262,1.4864,7.2437,1.3311,8.5987a22.48163,22.48163,0,0,0-4.7988-7.2735l.0068-.0073c-.05859-.5532-.1064-1.0513-.1865-1.5449a7.0777,7.0777,0,0,0-.6006-1.9556,11.09149,11.09149,0,0,0,3.9814.9487S46.44339,43.062,46.60249,43.8149Z"/>
              <path class="as" d="M46.56739,43.646c-.1406-.6538-.2315-1.065-.2315-1.065a11.09149,11.09149,0,0,1-3.9814-.9487,7.0777,7.0777,0,0,1,.6006,1.9556c.0517.3173.08791.6445.12691.9785A4.66984,4.66984,0,0,0,46.56739,43.646Z"/>
              <path class="am" d="M38.34769,38.228c-3.2022.3291-4.3663-3.7168-1.5313-3.0474A12.93846,12.93846,0,0,0,38.34769,38.228Z"/>
              <path class="bg" d="M37.22659,35.9511a2.90028,2.90028,0,0,0-1.5127.7857.39811.39811,0,1,0,.5439.5815,2.14075,2.14075,0,0,1,1.0889-.5791.39359.39359,0,0,0,.1494-.0556Z"/>
              <path class="bh" d="M47.48439,29.5654c2.2402,7.8433.541,10.6333-.2959,13.0425-.292,0-.5742-.0078-.8526-.0269a11.09149,11.09149,0,0,1-3.9814-.9487,9.72328,9.72328,0,0,1-4.0068-3.4043,12.93846,12.93846,0,0,1-1.5313-3.0474,6.2975,6.2975,0,0,1,1.7412-6.042A9.8606,9.8606,0,0,0,47.48439,29.5654Z"/>
              <path class="bi" d="M47.48439,29.5654c2.2402,7.8433.541,10.6333-.2959,13.0425-.292,0-.5742-.0078-.8526-.0269a11.09149,11.09149,0,0,1-3.9814-.9487,9.72328,9.72328,0,0,1-4.0068-3.4043,12.93846,12.93846,0,0,1-1.5313-3.0474,6.2975,6.2975,0,0,1,1.7412-6.042A9.8606,9.8606,0,0,0,47.48439,29.5654Z"/>
              <path class="bj" d="M45.40229,41.5913a10.20455,10.20455,0,0,0,1.9493.5698c.8662-2.3232,2.2373-5.2334.1328-12.5957a10.015,10.015,0,0,1-2.628.7627,24.64208,24.64208,0,0,1,2.4854,9.9175C46.02149,40.3247,45.53709,40.9853,45.40229,41.5913Z"/>
              <path class="bk" d="M38.45309,29.2368a6.34833,6.34833,0,0,0-1.6367,5.9438,12.93846,12.93846,0,0,0,1.5313,3.0474,9.72328,9.72328,0,0,0,4.0068,3.4043,11.09149,11.09149,0,0,0,3.9814.9487c.2784.0191.5606.0269.8526.0269a.26147.26147,0,0,0,.0136-.042,11.54411,11.54411,0,0,1-1.9335-.5347C40.44339,40.1748,38.38569,34.5132,38.45309,29.2368Z"/>
              <path class="as" d="M47.48439,29.5654a9.8606,9.8606,0,0,1-8.9268-.4268,6.16131,6.16131,0,0,0-1.8984,4.6041,7.81509,7.81509,0,0,1,2.4209-3.8682c2.3955,2.5181,5.8681,2.0268,8.7744,1.0937Q47.69189,30.29515,47.48439,29.5654Z"/>
              <path class="bl" d="M43.14159,45.1328l-.0068.0073a12.44648,12.44648,0,0,0-1.7217-1.4682s.62991-.0645,1.542-.084C43.03519,44.0815,43.083,44.5796,43.14159,45.1328Z"/>
              <path class="bc" d="M36.81639,35.1806c-2.835-.6694-1.6709,3.3765,1.5313,3.0474a9.72328,9.72328,0,0,0,4.0068,3.4043,7.0777,7.0777,0,0,1,.6006,1.9556c-.91209.0195-1.542.084-1.542.084l-2.5195,1.7919s.1347.0542.3779.1753a22.069,22.069,0,0,0-4.3096,3.0547H34.958c-10.06441-.5586-7.14941-6.8144-7.14941-6.8144-6.2402-2.1236-5.0459-6.6988-5.0459-6.6988,8.085,1.0166,9.0088-4.6709,11.5186-6.726h.0048a2.93835,2.93835,0,0,1,2.2803-.6983,11.78834,11.78834,0,0,0,1.9912,1.3823A6.2975,6.2975,0,0,0,36.81639,35.1806Z"/>
              <path class="bm" d="M36.81639,35.1806c-2.835-.6694-1.6709,3.3765,1.5313,3.0474a9.72328,9.72328,0,0,0,4.0068,3.4043,7.0777,7.0777,0,0,1,.6006,1.9556c-.91209.0195-1.542.084-1.542.084l-2.5195,1.7919s.1347.0542.3779.1753a22.069,22.069,0,0,0-4.3096,3.0547H34.958c-10.06441-.5586-7.14941-6.8144-7.14941-6.8144-6.2402-2.1236-5.0459-6.6988-5.0459-6.6988,8.085,1.0166,9.0088-4.6709,11.5186-6.726h.0048a2.93835,2.93835,0,0,1,2.2803-.6983,11.78834,11.78834,0,0,0,1.9912,1.3823A6.2975,6.2975,0,0,0,36.81639,35.1806Z"/>
              <path class="ay" d="M31.70019,34.1318c1.6894-1.7783,3.2451-4.3306,5.7881-4.9648a7.625,7.625,0,0,1,.84371-.1592,11.96844,11.96844,0,0,1-1.76561-1.2515,2.93835,2.93835,0,0,0-2.2803.6983h-.0048c-2.3819,1.9502-3.3399,7.167-10.3399,6.8271C26.25289,37.0097,29.60939,36.334,31.70019,34.1318Z"/>
              <g>
                <path class="ay" d="M30.99509,37.3242a10.57108,10.57108,0,0,0,5.4951-3.9087c.0694-.0986.13281-.2036.1963-.3086a6.37,6.37,0,0,1,.583-2.1811c-.084.0434-.1689.0898-.248.1391-2.0967,1.2886-3.22849,3.5772-5.1621,5.0449-2.877,2.1812-6.6016,2.3545-9.1836.1636.0029.0347.0049.0733.0068.1104a4.87685,4.87685,0,0,0,2.2803,1.3012A10.60631,10.60631,0,0,0,30.99509,37.3242Z"/>
                <path class="ay" d="M28.15719,39.1108a10.60216,10.60216,0,0,1-2.0254-.0278,8.13191,8.13191,0,0,0,6.9883-.7949,15.32264,15.32264,0,0,0,2.2237-1.6514,1.9984,1.9984,0,0,1-.0713-.2002c-.208.1655-.42.3242-.6407.4692A13.64645,13.64645,0,0,1,28.15719,39.1108Z"/>
                <path class="ay" d="M34.043,39.9057a13.46958,13.46958,0,0,1-1.27931.6187,14.8768,14.8768,0,0,0,4.3222-2.4033c-.0927-.0279-.1865-.0606-.2724-.0957A18.42633,18.42633,0,0,1,34.043,39.9057Z"/>
              </g>
              <g>
                <path class="be" d="M36.46,35.1211a2.58825,2.58825,0,0,1,.35639.0595,6.2975,6.2975,0,0,1,1.7412-6.042,11.78834,11.78834,0,0,1-1.9912-1.3823,3.05563,3.05563,0,0,0-1.23139.1148,6.29572,6.29572,0,0,0,.86709,1.2466A8.29927,8.29927,0,0,0,36.46,35.1211Z"/>
                <path class="be" d="M42.95509,43.5879a7.0777,7.0777,0,0,0-.6006-1.9556,9.72328,9.72328,0,0,1-4.0068-3.4043,3.25012,3.25012,0,0,1-1.4209-.1597c.1836,1.7867,1.53121,2.8653,2.8486,3.835a21.17292,21.17292,0,0,0-5.2441,6.7573c.1435.0117.2783.0244.42671.0332h.00389a22.069,22.069,0,0,1,4.3096-3.0547c-.2432-.1211-.3779-.1753-.3779-.1753l2.5195-1.7919S42.043,43.6074,42.95509,43.5879Z"/>
              </g>
              <path class="aw" d="M42.35449,23.2651a5.06943,5.06943,0,0,0-5.7881,4.4912,2.93835,2.93835,0,0,0-2.2803.6983h-.0048c-.1749,0-3.2852-3.0337-3.2852-3.0337s1.9268-6.5728,8.79591-6.1739A22.35275,22.35275,0,0,1,42.35449,23.2651Z"/>
              <path class="ap" d="M42.10639,22.7793a5.38237,5.38237,0,0,0-6.5312,2.9565,3.68978,3.68978,0,0,0-2.6406,1.5415,11.155,11.155,0,0,0,1.3467,1.1773h.0048a2.93835,2.93835,0,0,1,2.2803-.6983,5.06943,5.06943,0,0,1,5.7881-4.4912C42.27249,23.1001,42.19039,22.9385,42.10639,22.7793Z"/>
              <path class="bb" d="M39.30959,19.2339a8.10348,8.10348,0,0,0-6.7422,3.2602,8.40268,8.40268,0,0,1,4.3379-1.9692c1.0976,0,2.0078,1.5132,2.7265,3.105a5.36861,5.36861,0,0,1,2.3116-.3999C41.13279,21.8379,40.23049,20.5068,39.30959,19.2339Z"/>
              <g>
                <g>
                  <g>
                    <path class="bn" d="M46.125,38.7138c.60839.6719-.46291,2.106-1.97951.625A3.86681,3.86681,0,0,0,46.125,38.7138Z"/>
                    <path class="j" d="M46.16209,39.1626c.0693.0586.0537.1855-.0303.2842-.0859.0971-.2089.1279-.2783.0668a.20788.20788,0,0,1,.0322-.2832C45.97069,39.1338,46.09469,39.103,46.16209,39.1626Z"/>
                    <path class="bo" d="M45.19629,38.7138c.2676-1.2793.6621-1.1796.92871,0a3.86681,3.86681,0,0,1-1.97951.625C44.40039,38.164,44.46879,38,45.19629,38.7138Z"/>
                  </g>
                  <path class="bp" d="M43.834,39.5459a5.867,5.867,0,0,1-1.17091-.1201l.0791-.3897c.084.0161.17281.1943.25581.2066a3.8059,3.8059,0,0,0,3.59669-1.0328c.0254-.038-.05169-.1997-.0293-.2392l.3389.2085A3.51544,3.51544,0,0,1,43.834,39.5459Z"/>
                </g>
                <path class="bq" d="M43.99219,32.4575a3.5022,3.5022,0,0,0,.0264,2.1279,4.27451,4.27451,0,0,0,1.10541,1.835l-.02631.0293a2.29371,2.29371,0,0,1-.9092-.7139,3.22227,3.22227,0,0,1-.5508-1.0337,2.92911,2.92911,0,0,1-.1113-1.1748,2.09419,2.09419,0,0,1,.4277-1.0815Z"/>
                <path class="br" d="M44.00879,37.1367c.3008-1.8218,1.0976-1.3584,1.3955-.4941A2.17264,2.17264,0,0,0,44.00879,37.1367Z"/>
                <path class="bc" d="M41.52439,33.3169c-.3935-.0137-.6885-.0357-.999-.0703-.3027-.0225-.5879-.1709-.90039-.2149a3.86163,3.86163,0,0,0-.94341-.0181,2.13283,2.13283,0,0,0-.915.2994l-.0537-.0577a2.109,2.109,0,0,1,.8662-.6264,3.34361,3.34361,0,0,1,1.0625-.2334,2.275,2.275,0,0,1,1.0977.0835,1.488,1.488,0,0,1,.831.7734Z"/>
                <path class="bc" d="M44.25779,31.5361a1.12732,1.12732,0,0,1,.4385-.897,1.71346,1.71346,0,0,1,.9004-.3213,2.47756,2.47756,0,0,1,.94631.0025,1.79565,1.79565,0,0,1,.82129.4028l-.0401.0689a1.80532,1.80532,0,0,0-.8047-.0747,2.68724,2.68724,0,0,0-.7441.2119c-.2383.1074-.419.3037-.6533.3818-.2393.0952-.4688.1567-.7959.2671Z"/>
                <g>
                  <path class="bg" d="M49.02339,32.4536a3.03409,3.03409,0,0,0-.8076.1802l.1358.7929a.36337.36337,0,0,0,.0976-.0273,2.13664,2.13664,0,0,1,.6397-.1528.39785.39785,0,1,0-.0655-.793Z"/>
                  <g>
                    <path class="j" d="M47.38959,31.914a1.51336,1.51336,0,0,0-.5771,2.5293,3.98967,3.98967,0,0,1-2.0762.4825C44.87209,32.9585,46.04879,31.9468,47.38959,31.914Z"/>
                    <path class="bs" d="M47.38959,31.914a2.94564,2.94564,0,0,1,1.0782.1758,3.00356,3.00356,0,0,1-1.6553,2.3535A1.51336,1.51336,0,0,1,47.38959,31.914Z"/>
                    <path class="bt" d="M47.38959,31.914a2.94564,2.94564,0,0,1,1.0782.1758,3.00356,3.00356,0,0,1-1.6553,2.3535A1.51336,1.51336,0,0,1,47.38959,31.914Z"/>
                  </g>
                  <path class="j" d="M46.75389,33.6704a.29446.29446,0,1,1-.29389-.292A.29418.29418,0,0,1,46.75389,33.6704Z"/>
                  <path d="M47.98049,32.9795a.5718.5718,0,1,1-.5713-.5703A.572.572,0,0,1,47.98049,32.9795Z"/>
                  <path class="bu" d="M48.48729,32.0918a2.13568,2.13568,0,0,1-.1875,1.3574,2.76026,2.76026,0,0,1-.92279,1.0693,3.25841,3.25841,0,0,1-1.28811.5244,2.54716,2.54716,0,0,1-1.3545-.0996l.0029-.0395a3.97515,3.97515,0,0,0,2.4111-.7124,3.02622,3.02622,0,0,0,.8838-.9068,2.86451,2.86451,0,0,0,.4151-1.1987Z"/>
                  <path class="bv" d="M48.34379,32.6616a2.97829,2.97829,0,0,0,.124-.5718,2.94564,2.94564,0,0,0-1.0782-.1758c-1.3212.0328-2.4775,1.0137-2.6425,2.9204A4.49,4.49,0,0,1,48.34379,32.6616Z"/>
                  <path class="bw" d="M44.70509,34.9209a4.26471,4.26471,0,0,1,.2998-1.3555,2.85876,2.85876,0,0,1,.8125-1.1328,2.41543,2.41543,0,0,1,1.2803-.5527,3.02176,3.02176,0,0,1,1.3837.1679l-.0087-.0014a1.166,1.166,0,0,0,.7207-.1265,1.24788,1.24788,0,0,0,.5039-.5371l.05471.0234a1.16543,1.16543,0,0,1-.418.7647,1.4017,1.4017,0,0,1-.91211.3105h.0283l-.1133-.019a3.2542,3.2542,0,0,0-1.164-.0103,2.36639,2.36639,0,0,0-.9952.4224,2.994,2.994,0,0,0-.7929.8511,7.69665,7.69665,0,0,0-.6182,1.2006Z"/>
                </g>
                <g>
                  <g>
                    <path class="j" d="M41.51949,34.6626c-1.1914-.1543-1.6211,1.3628-1.1914,2.0591v.0039a4.94155,4.94155,0,0,1-2.5644-1.0269S39.66309,33.9853,41.51949,34.6626Z"/>
                    <path class="bs" d="M42.88869,35.6987a3.16,3.16,0,0,1-2.5606,1.0269v-.0039c-.4297-.6963,0-2.2134,1.1914-2.0591h.0049A3.10874,3.10874,0,0,1,42.88869,35.6987Z"/>
                    <path class="bx" d="M42.88869,35.6987a3.16,3.16,0,0,1-2.5606,1.0269v-.0039c-.4297-.6963,0-2.2134,1.1914-2.0591h.0049A3.10874,3.10874,0,0,1,42.88869,35.6987Z"/>
                  </g>
                  <path class="j" d="M40.61909,35.7856a.293.293,0,1,1-.291-.2939A.29338.29338,0,0,1,40.61909,35.7856Z"/>
                  <path d="M42.30959,35.6396a.57035.57035,0,1,1-.5703-.5703A.56958.56958,0,0,1,42.30959,35.6396Z"/>
                  <path class="bu" d="M42.90429,35.7114a2.34536,2.34536,0,0,1-1.0576,1.0513,2.91412,2.91412,0,0,1-1.5108.3217,3.47383,3.47383,0,0,1-1.456-.4267,3.61012,3.61012,0,0,1-1.12889-.9439l.02339-.0317a4.99094,4.99094,0,0,0,2.584,1.0054A3.14169,3.14169,0,0,0,42.873,35.686Z"/>
                  <path class="bv" d="M42.82619,35.7685l.0625-.0698a3.10874,3.10874,0,0,0-1.3643-1.0361h-.0049c-1.8564-.6773-3.7558,1.0361-3.7558,1.0361a6.83552,6.83552,0,0,0,.8252.5078A5.61284,5.61284,0,0,1,42.82619,35.7685Z"/>
                  <path class="bw" d="M42.86519,35.7153a4.79454,4.79454,0,0,0-1.25-.6016,2.83211,2.83211,0,0,0-1.2031-.0844,3.39866,3.39866,0,0,0-.6035.1318,4.023,4.023,0,0,0-.6035.2144,5.7193,5.7193,0,0,0-.6074.2763c-.2002.0933-.4102.21-.5889.315l-.1172.0669.0225-.0059a1.58463,1.58463,0,0,1-.8164.0386.73323.73323,0,0,1-.5664-.5445l.05371-.0258a.64426.64426,0,0,0,.53119.3086,1.359,1.359,0,0,0,.63181-.146l-.01171.0083a5.79694,5.79694,0,0,1,1.22171-.8076,3.77922,3.77922,0,0,1,1.40919-.4014,2.73385,2.73385,0,0,1,1.4346.2754,3.33793,3.33793,0,0,1,1.1093.9438Z"/>
                </g>
              </g>
            </g>
            <path d="M51.23539,34.8178c-.2295-1.7031-1.1377-2.1152-1.835-2.1684v.3994c.8027.0698,1.2871.6807,1.4424,1.8223.1338.9995-.6094,2.811-1.4707,4.9077a31.7308,31.7308,0,0,0-2.3545,7.4009c-1.5235-2.8218-4.64159-3.7935-7.4151-4.6568a21.27734,21.27734,0,0,1-2.9492-1.0703,2.46578,2.46578,0,0,1-1.4922-1.8183,2.8695,2.8695,0,0,1,.7305-2.2217l-.2871-.2759a3.28249,3.28249,0,0,0-.8379,2.5552,2.81,2.81,0,0,0,1.7109,2.1176,21.38168,21.38168,0,0,0,3.0069,1.0928c2.89161.9014,6.1689,1.9234,7.47261,5.0747l.31939.771.0634-.8315a28.14778,28.14778,0,0,1,2.4004-7.9849C50.623,37.7802,51.38479,35.9228,51.23539,34.8178Z"/>
            <path d="M66.14059,78.748a5.848,5.848,0,0,1-.7304-.0459c-6.6709-.8481-13.74419-12.6308-18.462-30.75l.38581-.101c5.58789,21.4672,13.02829,29.8081,18.126,30.456,2.48629.3149,4.68939-1.1128,6.36809-4.1328l.3477.1934C70.57519,77.2475,68.5,78.748,66.14059,78.748Z"/>
          </g>
          <path class="p" d="M113.70409,52.9526a4.921,4.921,0,0,0-.20509,1.3955,1.16547,1.16547,0,0,0,.61329,1.0928,1.932,1.932,0,0,0,1.332.0249,5.51711,5.51711,0,0,0,1.2911-.5845l.0644.0996a2.34191,2.34191,0,0,1-1.085,1.4014,2.39878,2.39878,0,0,1-.9257.3184,2.173,2.173,0,0,1-1.1934-.1822,2.13123,2.13123,0,0,1-.5801-.4218,2.01653,2.01653,0,0,1-.376-.5909,1.97148,1.97148,0,0,1-.09759-1.1294,2.19757,2.19757,0,0,1,1.04879-1.4589Z"/>
          <path class="by" d="M123.99709,59.0014c-.1104.4585-.2119.9156-.2764,1.376a2.96842,2.96842,0,0,0,.07131,1.3452.806.806,0,0,0,.37789.4776,1.1566,1.1566,0,0,0,.6299.105,4.70836,4.70836,0,0,0,1.32621-.3799l.05169.1069a2.11928,2.11928,0,0,1-1.2939,1.2231,1.73452,1.73452,0,0,1-1.2354-.0527,1.80976,1.80976,0,0,1-.6298-.4653,2.112,2.112,0,0,1-.3497-.606,2.40156,2.40156,0,0,1-.121-1.0512,2.69455,2.69455,0,0,1,.2255-.8384,2.8285,2.8285,0,0,1,1.1084-1.2735Z"/>
          <path class="bz" d="M104.043,63.29c2.24509.3726,3.93059,2.3076,2.93259,2.8062C105.97559,66.5947,105.94529,64.499,104.043,63.29Z"/>
          <path class="bz" d="M115.70509,72.6157c-1.49509-2.7153-3.6778-2.7153-3.9278-1.7168C111.52729,71.8969,114.085,71.4638,115.70509,72.6157Z"/>
          <g>
            <path class="p" d="M39.82029,92.9883c5.166-2.9566,8.3994,2.394,10.3633,6.7895-1.9238-3.0112-11.3398-.9927-10.8008-5.6958v-.0039Z"/>
            <path class="v" d="M47.01659,95.7475a18.07864,18.07864,0,0,1,2.7666,3.5723,2.30517,2.30517,0,0,1,.4004.458c-1.9639-4.3955-5.1973-9.7461-10.3633-6.7895l-.2139.5327C42.17089,92.707,45.07319,93.9111,47.01659,95.7475Z"/>
            <path class="v" d="M41.252,94.2324a10.95016,10.95016,0,0,1,5.72359,3.8945c.35641.0777.7021.166,1.0283.2666C46.50779,96.3266,43.88959,94.1762,41.252,94.2324Z"/>
            <path class="x" d="M39.82029,92.9883l-.4375,1.0898c-4.5566-.4585-9.3672-.1309-14.2549-1.602-8.417-2.523-9.4101-11.5084-3.0732-16.7325a19.98384,19.98384,0,0,1,.0596,3.9888l.0644.0923c-4.0781,2.8291-1.3183,10.8804,9.0117,11.999C34.94239,92.2304,37.72559,92.6133,39.82029,92.9883Z"/>
            <path class="v" d="M20.47659,81.249c.0771.1226.1611.2437.2431.3657a4.07143,4.07143,0,0,1,1.459-1.79l-.0644-.0923a19.98384,19.98384,0,0,0-.0596-3.9888,11.91852,11.91852,0,0,0-2.7422,3.1875A14.17415,14.17415,0,0,0,20.47659,81.249Z"/>
          </g>
          <g>
            <path class="s" d="M128.11429,161.2065a6.62418,6.62418,0,0,0-.8448-1.6865l.3262-.2295a6.84506,6.84506,0,0,1,.9004,1.8071Z"/>
            <rect class="ca" x="104.58557" y="161.0883" width="0.39865" height="1.5309" transform="translate(-56.009 55.44964) rotate(-23.5865)"/>
            <rect class="s" x="60.8358" y="161.64575" width="0.39768" height="1.66424" transform="translate(-92.15295 80.88223) rotate(-41.36929)"/>
            <polygon class="ca" points="27.597 164.045 26.584 161.939 26.942 161.768 27.955 163.872 27.597 164.045"/>
          </g>
          <g>
            <path class="am" d="M69.25879,72.1875c-.2129.0381-.2363-.1734-.0274-.2378.3682-.1157.8125-.3369,1.2764-.4971a4.59843,4.59843,0,0,0,1.7754-.6645c.1299-.4468-.7471.0346-1.8584.1176a10.53413,10.53413,0,0,1-1.1934.3472c-.289.0503-.2646-.0986.0157-.1821.5468-.1651,1.0244-.2842,1.62591-.4326,1.10649-.043,1.90339-.396,1.90829-.5645.0039-.1143-.918.0996-1.99129.0503a10.53309,10.53309,0,0,1-1.624.1909.12939.12939,0,1,1-.001-.2578c1.14359-.0215,2.83789.0132,2.96879-.2319.1064-.1978-.9229-.2241-1.9902-.3316-.97759-.0986-1.3741-.3213-1.7598-.1582a6.50561,6.50561,0,0,0-2.2207,2.107c-.958,1.396-1.4717,1.5083-1.6992,1.6479L63.585,74.3252a7.6595,7.6595,0,0,0,5.28119-1.2798,7.33047,7.33047,0,0,0,1.6416-.814c.918-.1987,1.4951-.7827,1.4951-1.0039,0-.1045-.7412.3736-1.62689.4942A11.096,11.096,0,0,1,69.25879,72.1875Z"/>
            <path class="ba" d="M54.15429,75.4199a19.1963,19.1963,0,0,1-4.9629-1.186,21.99378,21.99378,0,0,1-7.2871-4.7442C34.87009,62.7441,32.123,52.7676,32.123,52.7676a8.5388,8.5388,0,0,1,.65339-1.2427c2.6074-4.106,7.5293-3.603,7.5293-3.603a25.29728,25.29728,0,0,0,9.5117,17.8642q.75285.61665,1.5254,1.1582a36.20837,36.20837,0,0,0,13.3691,5.7988l-.248.3472L63.585,74.3252A23.46333,23.46333,0,0,1,54.15429,75.4199Z"/>
            <path class="bb" d="M51.34279,66.9443q-.77205-.54195-1.5254-1.1582a25.29728,25.29728,0,0,1-9.5117-17.8642,9.10322,9.10322,0,0,0-4.9766,1.1396,31.394,31.394,0,0,0,11.6133,17.0308c.6347,3.8252,4.9394,6.2656,7.8828,7.0014A30.54382,30.54382,0,0,0,62.543,74.626c.34469-.0948.69039-.191,1.042-.3008l.87889-1.2349.248-.3472A36.20837,36.20837,0,0,1,51.34279,66.9443Z"/>
          </g>
        </g>
        <g>
          <g>
            <path class="cb" d="M154.19819,159.7314c-.4677,2.8599-.3671,4.77,2.2022,4.5381,2.5654-.2217,1.7158-2.2554,1.584-3.394-.02439.8144-.23339.9633-.6201,1.0156-3.1065.4585-3.4034-.4756-3.1641-2.1597Z"/>
            <path class="cc" d="M154.31639,161.3491l-.0019-.0093c.3281.5933,1.1748.8286,3.0498.5513.38671-.0523.59571-.2012.6201-1.0156.1181,1.0117.7949,2.7236-.8477,3.2524A3.94432,3.94432,0,0,1,154.31639,161.3491Z"/>
            <path class="cb" d="M161.42289,160.1011c-1.6924,2.4858-1.6924,3.4892.6025,4.1909,1.8682.5678,2.7978-.209,3.1582-4.086-.0713.4971-.43459,2.562-1.6572,2.3682C160.78809,162.1303,160.38379,162.0327,161.42289,160.1011Z"/>
            <path class="cc" d="M162.42379,162.3828c.1289.0293.2696.0508.418.0776.07421.02.1494.0386.2266.0669-.0772-.0283-.15239-.0469-.2266-.0669.21.0352.4336.0733.6846.1138,1.22261.1938,1.5859-1.8711,1.6572-2.3682-.3604,3.877-1.29,4.6538-3.1582,4.086a2.68262,2.68262,0,0,1-1.6602-1.0157A2.48845,2.48845,0,0,1,162.42379,162.3828Z"/>
            <path class="n" d="M158.35939,127.5644a8.135,8.135,0,0,1,.1094-.8652,21.31517,21.31517,0,0,1-4.8897-.8232c-1.0869,3.1997-1.4873,8.184.0928,19.4667.5332,3.8267.8916,5.0333.6045,7.2974-.1612,1.2676.5341,2.8486.3877,4.2344-.1182,1.0747-.3506,2.0513-.4639,2.8569-.2393,1.6841.0576,2.6182,3.1641,2.1597.38671-.0523.59571-.2012.6201-1.0156v-.0078a30.92407,30.92407,0,0,0-.3369-3.8501c-.417-3.3799-1.0879-11.3199-.7969-12.9844C158.98339,131.8144,158.17969,129.9702,158.35939,127.5644Z"/>
            <path class="cd" d="M157.97949,160.9609c-.0371.7315-.2441.8828-.6152.9302-3.1065.4585-3.4034-.4756-3.1641-2.1597.04781-.3403.1182-.7153.1894-1.1059C155.084,160.4292,156.23139,161.5161,157.97949,160.9609Z"/>
            <path class="ce" d="M156.08009,153.8701a162.70344,162.70344,0,0,1,.7383-25.4282,7.55826,7.55826,0,0,0,.163-1.8736c.6231.0762,1.1387.1133,1.4874.1309a8.135,8.135,0,0,0-.1094.8652c-.1797,2.4058.624,4.25-1.5088,16.4688-.291,1.6645.3799,9.6045.7969,12.9844a30.92407,30.92407,0,0,1,.3369,3.8501v.0078c-.02439.8144-.23339.9633-.6201,1.0156-.2237.0327-.4278.0566-.6231.0757a5.37561,5.37561,0,0,1-1.45119-.02A61.2393,61.2393,0,0,1,156.08009,153.8701Z"/>
            <path class="cd" d="M158.46879,126.6992a8.135,8.135,0,0,0-.1094.8652c-.0225.3003-.0283.5972-.0283.9029-2.0616-.9234-4.0518-.2071-5.5762,1.4951a17.82086,17.82086,0,0,1,.8242-4.0864A21.31517,21.31517,0,0,0,158.46879,126.6992Z"/>
            <path class="n" d="M163.292,129.3867c-.73241,7.397,1.418,14.6465.23439,24.769a9.863,9.863,0,0,1-1.3955,4.6797c-.2832.4942-.5225.9107-.708,1.2657-1.0391,1.9316-.6348,2.0292,2.1035,2.4731,1.22261.1938,1.5859-1.8711,1.6572-2.3682.0019-.0366.0068-.06.0068-.0796a.03157.03157,0,0,0,.0078-.0253c.8545-2.8765-.0673-4.5914.5733-6.5552,4.6494-14.209,3.001-22.2012,2.2344-27.4629a22.2561,22.2561,0,0,1-5.2217.6064v.022A10.42177,10.42177,0,0,0,163.292,129.3867Z"/>
            <path class="cd" d="M162.23339,161.3491a1.95891,1.95891,0,0,0,2.88961-.7876c-.15231.7598-.57031,2.1743-1.59661,2.0127-2.6377-.4258-3.1075-.5391-2.208-2.2739A2.98239,2.98239,0,0,0,162.23339,161.3491Z"/>
            <path class="ce" d="M165.71779,126.5024a19.22288,19.22288,0,0,0,2.2881-.4194c.7666,5.2617,2.415,13.2539-2.2344,27.4629-.6406,1.9638.2812,3.6787-.5733,6.5552a.03157.03157,0,0,1-.0078.0253c0,.0196-.0049.043-.0068.0796-.0713.4971-.43459,2.562-1.6572,2.3682-.6026-.0977-1.084-.1787-1.4698-.2637a75.32681,75.32681,0,0,0,2.2618-9.7744C166.05079,143.7466,166.91019,134.956,165.71779,126.5024Z"/>
            <path class="cd" d="M163.209,130.5c.02239-.3721.04779-.7412.083-1.1133a10.42177,10.42177,0,0,1-.50781-2.6753v-.022a22.2561,22.2561,0,0,0,5.2217-.6064c.07811.5469.1689,1.1289.2617,1.7431C166.42479,127.1372,164.30369,128.2295,163.209,130.5Z"/>
            <path class="j" d="M164.21389,163.3071c.0166.3047-1.3106.5449-1.4395,0C162.64359,162.7632,164.17869,162.6806,164.21389,163.3071Z"/>
            <path class="j" d="M157.86039,162.2768c.2529.3501-.23539,1.292-.626.9766C156.84379,162.9297,157.625,161.9551,157.86039,162.2768Z"/>
          </g>
          <path class="n" d="M163.833,53.706a104.54341,104.54341,0,0,0-2.89161,10.086c-1.0293.2837-2.0293.5649-2.9658.83-2.0537-4.2846-2.4004-10.643-2.4121-10.9086,2.872-1.0005,2.4121-6.2886,2.4121-6.2886l4.7588-1.1509S161.44819,52.5669,163.833,53.706Z"/>
          <path class="o" d="M163.36619,53.3633c-1.1807,2.3408-2.3955,4.6303-3.666,6.8071-1.7227,3.4502-2.8633-2.7588-3.7979-6.6148a2.81974,2.81974,0,0,1-.3388.1578c.0117.2656.3584,6.624,2.4121,10.9086.9365-.2651,1.9365-.5463,2.9658-.83A104.54341,104.54341,0,0,1,163.833,53.706,1.727,1.727,0,0,1,163.36619,53.3633Z"/>
          <path class="o" d="M162.73439,46.2739l-4.7588,1.1509a12.28711,12.28711,0,0,1-.1885,3.0664,3.22015,3.22015,0,0,0,4.6045-.4741A19.58527,19.58527,0,0,1,162.73439,46.2739Z"/>
          <path class="cf" d="M166.74119,62.2837l-.2021-.0049c.0664-.0137.1347-.0347.2021-.0523a28.23221,28.23221,0,0,1-1.9238-8.3462,1.94636,1.94636,0,0,1-.3848,0,1.60837,1.60837,0,0,1-.59959-.1743l-6.11421,10.3472a36.9032,36.9032,0,0,1-2.1553-10.3398,2.93691,2.93691,0,0,1-1.0186.1669,23.17646,23.17646,0,0,1-3.1045,9.5499,3.45806,3.45806,0,0,0,.0098,3.4511c4.709,5.3257,2.8301,10.3838,2.8301,10.3838s4.001,2.1275,5.2939,2.0571c1.4873-.0854,5.8233-2.6889,5.8233-2.6889s-1.3741-4.2241-.2051-7.2515C166.36619,66.354,167.59959,65.5791,166.74119,62.2837Z"/>
          <path class="cf" d="M164.43259,53.8803a1.60837,1.60837,0,0,1-.59959-.1743s-.88961,2.481-1.97361,6.4888q1.9995-.28635,4.0029-.5542a27.10137,27.10137,0,0,1-1.0449-5.7603A1.94636,1.94636,0,0,1,164.43259,53.8803Z"/>
          <path class="n" d="M166.74119,62.2265a28.23221,28.23221,0,0,1-1.9238-8.3462c1.2021-.1025,5.706-.352,5.706,2.8438-.7109,2.4072-2.4951,3.0034-3.3213,5.3823C167.04879,62.1465,166.89549,62.1865,166.74119,62.2265Z"/>
          <path class="cg" d="M180.11429,119.3994s-1.7686-3.0645-5.5079-17.8027c-3.7402-14.733-3.7246-17.1607-6.39739-20.8404a31.98245,31.98245,0,0,1-2.81151-4.123c-2.7998,2.0659-7.7246,2.7627-11.1172.6318-2.7998,3.1851-5.5205,7.2783-6.86529,15.4141-1.44231,8.7241-3.76951,19.4834-7.06641,23.7485,0,0-.5244,2.7842,6.7637,6.7285-.331.7783-.6807,1.5171-1.0469,2.1914a33.35009,33.35009,0,0,0,17.9014,2.9073s-.0156-.2725-.0576-.771l.0576-.0069c8.9824-.6758,11.667-3.3911,11.667-3.3911-.1426-.2622-.294-.5762-.4531-.9297C180.11429,121.1328,180.11429,119.3994,180.11429,119.3994Z"/>
          <path class="ch" d="M154.28029,77.2651c-2.7998,3.1851-5.5205,7.2783-6.86529,15.4141-1.44231,8.7241-3.76951,19.4834-7.06641,23.7485,0,0-.5244,2.7842,6.7637,6.7285-.331.7783-.6807,1.5171-1.0469,2.1914,0,0,.1319.0679.378.1812,6.5322-14.4736,9.30861-31.4966,11.2138-47.0742A8.6265,8.6265,0,0,1,154.28029,77.2651Z"/>
          <path class="cg" d="M160.52339,78.4643a10.83343,10.83343,0,0,1-2.8662-.0097c-1.90519,15.5776-4.6816,32.6006-11.2138,47.0742a33.60659,33.60659,0,0,0,17.2578,2.7534A260.31723,260.31723,0,0,0,160.52339,78.4643Z"/>
          <path class="ch" d="M175.63379,124.0859c-.1426-.2622-.294-.5762-.4531-.9297.0781-.0332.1435-.0644.2197-.0952-3.208-9.2724-4.6846-19.5434-7.0938-28.8857a106.2435,106.2435,0,0,0-5.9961-16.0777,12.00894,12.00894,0,0,1-1.7871.3667,260.31723,260.31723,0,0,1,3.1778,49.8179c.09081-.0117.1767-.0161.2656-.0273,0,0-.0156-.2725-.0576-.771l.0576-.0069C172.94919,126.8012,175.63379,124.0859,175.63379,124.0859Z"/>
          <path class="cg" d="M174.60639,101.5967c-3.7402-14.733-3.7246-17.1607-6.39739-20.8404a31.98245,31.98245,0,0,1-2.81151-4.123,9.755,9.755,0,0,1-3.087,1.4643,106.2435,106.2435,0,0,1,5.9961,16.0777c2.4092,9.3423,3.8858,19.6133,7.0938,28.8857,4.7021-1.9849,4.7139-3.6616,4.7139-3.6616S178.34569,116.3349,174.60639,101.5967Z"/>
          <g class="ci">
            <g class="cj">
              <g>
                <path class="ck" d="M144.13279,100.0854a5.9049,5.9049,0,1,1,4.1826-1.7295A5.89429,5.89429,0,0,1,144.13279,100.0854Zm0-11.1245a5.2065,5.2065,0,1,0,3.6836,1.5274A5.18436,5.18436,0,0,0,144.13279,88.9609Z"/>
                <path class="ck" d="M145.07419,93.2319a1.32823,1.32823,0,1,1-1.8808,0A1.32381,1.32381,0,0,1,145.07419,93.2319Z"/>
                <path class="ck" d="M152.72359,91.4966a5.91655,5.91655,0,1,1,4.1807-1.7334A5.86922,5.86922,0,0,1,152.72359,91.4966Zm0-11.1246a5.20755,5.20755,0,1,0,3.6827,1.521A5.18147,5.18147,0,0,0,152.72359,80.372Z"/>
                <path class="ck" d="M153.66309,84.6386a1.33,1.33,0,1,1-1.8799,0A1.33458,1.33458,0,0,1,153.66309,84.6386Z"/>
                <path class="ck" d="M161.31449,82.9038a5.9143,5.9143,0,1,1,4.1816-10.1016,5.9153,5.9153,0,0,1-4.1816,10.1016Zm0-11.1211a5.20825,5.20825,0,1,0,3.6826,8.8926,5.20581,5.20581,0,0,0-3.6826-8.8926Z"/>
                <path class="ck" d="M143.95409,117.084a5.9121,5.9121,0,1,1,4.1846-1.7344A5.87916,5.87916,0,0,1,143.95409,117.084Zm-.0039-11.1197a5.2075,5.2075,0,1,0,3.6846,1.522A5.16449,5.16449,0,0,0,143.95019,105.9643Z"/>
                <path class="ck" d="M144.89259,110.2309a1.3295,1.3295,0,1,1-1.8799,0A1.32511,1.32511,0,0,1,144.89259,110.2309Z"/>
                <path class="ck" d="M152.54389,108.4912a5.9066,5.9066,0,1,1,4.1827-1.7315A5.87394,5.87394,0,0,1,152.54389,108.4912Zm0-11.1177a5.21473,5.21473,0,1,0,3.6807,1.5264A5.16424,5.16424,0,0,0,152.54389,97.3735Z"/>
                <path class="ck" d="M153.48139,101.6396a1.32823,1.32823,0,1,1-1.8779,0A1.33174,1.33174,0,0,1,153.48139,101.6396Z"/>
                <path class="ck" d="M161.13479,99.9038a5.9129,5.9129,0,1,1,4.1826-1.7344A5.88739,5.88739,0,0,1,161.13479,99.9038Zm-.002-11.1201a5.14983,5.14983,0,0,0-3.6816,1.5254,5.20678,5.20678,0,1,0,7.3662,0A5.15687,5.15687,0,0,0,161.13279,88.7837Z"/>
                <path class="ck" d="M162.07319,93.0508a1.32908,1.32908,0,1,1-1.8759,0A1.33144,1.33144,0,0,1,162.07319,93.0508Z"/>
                <path class="ck" d="M169.72559,91.3144a5.91525,5.91525,0,1,1,4.1816-1.7358A5.87621,5.87621,0,0,1,169.72559,91.3144Zm-.0039-11.125a5.2105,5.2105,0,1,0,3.6855,1.5264A5.17813,5.17813,0,0,0,169.72169,80.1894Z"/>
                <path class="ck" d="M170.66209,84.459a1.32943,1.32943,0,1,1-1.8779,0A1.32789,1.32789,0,0,1,170.66209,84.459Z"/>
                <path class="ck" d="M143.77439,134.0854a5.91475,5.91475,0,1,1,4.1787-1.7319A5.86887,5.86887,0,0,1,143.77439,134.0854Zm0-11.1269a5.21286,5.21286,0,1,0,3.6787,1.5288A5.18326,5.18326,0,0,0,143.77439,122.9585Z"/>
                <path class="ck" d="M144.71089,127.228a1.32908,1.32908,0,1,1-1.8798,0A1.32619,1.32619,0,0,1,144.71089,127.228Z"/>
                <path class="ck" d="M152.36229,125.4936a5.9133,5.9133,0,1,1,4.17771-1.7304A5.87208,5.87208,0,0,1,152.36229,125.4936Zm0-11.1211a5.2068,5.2068,0,1,0,3.6826,1.522A5.17678,5.17678,0,0,0,152.36229,114.3725Z"/>
                <path class="ck" d="M153.30079,118.6416a1.327,1.327,0,1,1-1.875,0A1.322,1.322,0,0,1,153.30079,118.6416Z"/>
                <path class="ck" d="M160.95309,116.9043a5.91341,5.91341,0,1,1,4.1826-1.7364A5.8682,5.8682,0,0,1,160.95309,116.9043Zm0-11.1245a5.213,5.213,0,1,0,3.6846,1.5312A5.17129,5.17129,0,0,0,160.95309,105.7798Z"/>
                <path class="ck" d="M161.89259,110.0522a1.32724,1.32724,0,1,1-1.878,0A1.3239,1.3239,0,0,1,161.89259,110.0522Z"/>
                <path class="ck" d="M169.54689,108.3169a5.91752,5.91752,0,1,1,4.1806-1.7378A5.892,5.892,0,0,1,169.54689,108.3169ZM169.541,97.1904a5.20874,5.20874,0,1,0,3.68459,1.5278A5.16282,5.16282,0,0,0,169.541,97.1904Z"/>
                <path class="ck" d="M170.48139,101.4594a1.32791,1.32791,0,1,1-1.8769,0A1.32441,1.32441,0,0,1,170.48139,101.4594Z"/>
                <path class="ck" d="M178.13479,99.7246a5.91241,5.91241,0,1,1,4.1845-1.731A5.87205,5.87205,0,0,1,178.13479,99.7246Zm-.003-11.1221a5.2085,5.2085,0,1,0,3.6875,8.8872,5.2046,5.2046,0,0,0-3.6875-8.8872Z"/>
                <path class="ck" d="M179.07229,92.8706a1.32841,1.32841,0,1,1-1.878,0A1.3204,1.3204,0,0,1,179.07229,92.8706Z"/>
                <path class="ck" d="M160.77249,133.9048a5.9163,5.9163,0,1,1,4.1796-1.7325A5.86487,5.86487,0,0,1,160.77249,133.9048Zm0-11.1255a5.2102,5.2102,0,1,0,3.6816,1.5249A5.18891,5.18891,0,0,0,160.77249,122.7793Z"/>
                <path class="ck" d="M161.71,127.0493a1.32844,1.32844,0,1,1-1.878,0A1.32371,1.32371,0,0,1,161.71,127.0493Z"/>
                <path class="ck" d="M169.36329,125.3125a5.91391,5.91391,0,1,1,4.17871-1.729A5.87989,5.87989,0,0,1,169.36329,125.3125Zm0-11.1201a5.197,5.197,0,0,0-5.207,5.207,5.20834,5.20834,0,1,0,5.207-5.207Z"/>
                <path class="ck" d="M170.30179,118.4594a1.32826,1.32826,0,1,1-1.8789,0A1.32451,1.32451,0,0,1,170.30179,118.4594Z"/>
                <path class="ck" d="M177.95309,116.7202a5.91648,5.91648,0,1,1,4.1797-1.7275A5.86764,5.86764,0,0,1,177.95309,116.7202Zm0-11.1182a5.21815,5.21815,0,1,0,3.6797,1.5235A5.16372,5.16372,0,0,0,177.95309,105.602Z"/>
                <path class="ck" d="M178.89259,109.8681a1.32947,1.32947,0,1,1-1.8799,0A1.32921,1.32921,0,0,1,178.89259,109.8681Z"/>
                <path class="ck" d="M177.77339,133.7226a5.91564,5.91564,0,1,1,4.1768-1.729A5.8701,5.8701,0,0,1,177.77339,133.7226Zm0-11.123a5.20958,5.20958,0,1,0,3.6817,1.5283A5.17532,5.17532,0,0,0,177.77339,122.5996Z"/>
                <path class="ck" d="M178.71089,126.8691a1.3284,1.3284,0,1,1-1.87889,0A1.32661,1.32661,0,0,1,178.71089,126.8691Z"/>
              </g>
            </g>
          </g>
          <path class="cl" d="M154.19919,75.4179s3.0996,2.3282,11.291,0a18.53446,18.53446,0,0,0,1.585,3.3946s-5.5205,3.3027-14.3203.3174A8.75885,8.75885,0,0,0,154.19919,75.4179Z"/>
          <path class="cm" d="M154.19919,75.4179a8.75885,8.75885,0,0,1-1.4443,3.712,24.22163,24.22163,0,0,0,3.083.8286q.3399-1.8618.6553-3.7232A6.03094,6.03094,0,0,1,154.19919,75.4179Z"/>
          <path class="cn" d="M167.07519,78.8125a18.53446,18.53446,0,0,1-1.585-3.3946c-.8183.2344-1.583.4185-2.3007.5655.3486,1.2861.6923,2.5849,1.0253,3.8877A11.57579,11.57579,0,0,0,167.07519,78.8125Z"/>
          <path class="n" d="M159.27729,71.8237s4.59671-9.4673,6.1495-13.8774l5.0966-1.2222c-1.9062,7.5933-6.9287,15.6811-8.0839,16.5591-1.7413,1.3213-7.2403,3.5566-15.961,5.0322L144.292,77.0957S156.51949,71.6582,159.27729,71.8237Z"/>
          <path class="n" d="M144.292,77.0957a26.55176,26.55176,0,0,0-4.08111.3271c-3.08,1.3799-3.66789,2.7515-3.25089,2.96.26949.1338,1.27729-1.4512,2.72749-1.2319-1.7891.8193-2.7217,1.4272-2.3506,1.5512a7.01061,7.01061,0,0,0,2.2813-.332c-1.1377.5771-1.6768.9853-1.3789,1.084a11.17518,11.17518,0,0,0,3.9619-.8662c-1.4854.8374-2.2549,1.4331-1.9278,1.5112.3623.0869,5.0704-1.521,6.2051-3.7837Z"/>
        </g>
        <g>
          <path class="k" d="M167.10939,40.1313c-.0918.4361-.1865.8535-.293,1.252a1.02446,1.02446,0,0,1,.669-.0689c-.001-.4511-.0108-.9028-.0225-1.3545C167.34569,40.0166,167.23049,40.0771,167.10939,40.1313Z"/>
          <path class="co" d="M170.00779,37.1992A14.31051,14.31051,0,0,1,153.832,31a6.82636,6.82636,0,0,0-1.26171,1.5371c-.0371.0962.0371.3115.2061.6035h.0058a18.391,18.391,0,0,0,2.4121,3.0278c1.7618,1.8648,4.0518,3.7989,5.72071,4.1109a17.59334,17.59334,0,0,0,6.21879-.2486c-.00679.0332-.0147.0655-.0244.1006a20.10881,20.10881,0,0,0,3.4033-1.9883q-.022-.57555-.05369-1.1206C170.30759,37.0801,170.16309,37.1455,170.00779,37.1992Z"/>
          <path class="co" d="M155.16209,29.2861c-.1289.3677-.1982.624-.1982.624s-.1651.1504-.4082.3794c-.2002.1934-.46.4449-.72369.7105.07719.1284.16309.2485.24319.373,4.7422-.0429,8.792,2.7793,11.9092,6.4058.4062,0,.8125-.0069,1.2158-.0405C165.13089,33.2466,161.55959,29.9555,155.16209,29.2861Z"/>
          <path class="m" d="M160.84279,27.0893c-2.0225-.396-3.7071-.5625-4.1065-.3344a5.17935,5.17935,0,0,0-1.5742,2.5312c6.3975.6694,9.9688,3.9605,12.0381,8.4522a12.77213,12.77213,0,0,0,2.8076-.5391h0A15.17216,15.17216,0,0,0,160.84279,27.0893Z"/>
          <path class="cp" d="M166.81639,41.3833c1.7051-.6787,1.47661,2.1533-1.0039,2.9521l-.0039-.001A19.43143,19.43143,0,0,0,166.81639,41.3833Z"/>
          <path class="cq" d="M165.80859,44.3344a14.01458,14.01458,0,0,1-1.26559,2.3272C161.67969,45.228,163.91019,42.5825,165.80859,44.3344Z"/>
          <path class="cr" d="M158.57229,43.7055a16.85262,16.85262,0,0,1,1.4502.9537,12.82805,12.82805,0,0,1-2.4971-.2613S157.53219,43.0708,158.57229,43.7055Z"/>
          <path class="cq" d="M153.29879,44.7251c1.3203-1.7852,3.6533,1.2739,1.3467,2.0083A15.19554,15.19554,0,0,1,153.29879,44.7251Z"/>
          <path class="cp" d="M152.07619,44.1933c-1.336-.9155-1.6143-2.5034-.1211-2.5429a16.78909,16.78909,0,0,0,1.3437,3.0747A3.59132,3.59132,0,0,1,152.07619,44.1933Z"/>
          <path class="m" d="M152.56149,42.9175c-.0088.1069-.02049.2148-.0312.3212.1035.1924.166.3038.166.3038C152.64549,43.3291,152.60159,43.1216,152.56149,42.9175Z"/>
          <path class="cs" d="M157.52539,44.3979a12.82805,12.82805,0,0,0,2.4971.2613,16.85262,16.85262,0,0,0-1.4502-.9537C157.53219,43.0708,157.52539,44.3979,157.52539,44.3979Zm-4.2266.3272a16.78909,16.78909,0,0,1-1.3437-3.0747c-.0977-.2984-.1397-.4707-.1397-.4707s-.4716-1.6294,3.3789-5.0113c1.7618,1.8648,4.0518,3.7989,5.72071,4.1109a17.59334,17.59334,0,0,0,6.21879-.2486c-.0977.4746-.2041.9229-.3174,1.3526a19.43143,19.43143,0,0,1-1.0078,2.9511c-1.8984-1.7519-4.1289.8936-1.26559,2.3272a9.617,9.617,0,0,1-3.42971,3.1265c-1.2461.7192-3.166-.2745-3.166-.2745a10.56451,10.56451,0,0,1-3.3018-2.7802C156.95209,45.999,154.61909,42.9399,153.29879,44.7251Z"/>
          <path class="o" d="M160.915,40.2793c-1.66891-.312-3.95891-2.2461-5.72071-4.1109-3.2998,2.898-3.4248,4.5049-3.3916,4.9077a22.791,22.791,0,0,1,3.3018-2.9111,10.681,10.681,0,0,0,9.9648,2.1851A14.684,14.684,0,0,1,160.915,40.2793Z"/>
          <path class="l" d="M155.19429,36.1684a18.391,18.391,0,0,1-2.4121-3.0278h-.0058c-.02739.0176-.15339.0898-.3321.2036a33.46942,33.46942,0,0,1,.3702,5.3379A15.93212,15.93212,0,0,1,155.19429,36.1684Z"/>
          <path class="cf" d="M165.334,34.2539a12.91718,12.91718,0,0,0-3.01471-2.9766,12.46394,12.46394,0,0,0-3.90429-1.8164,13.239,13.239,0,0,0-2.14741-.394c-.4092-.0376-.8125-.0591-1.22459-.0591-.11821.5303-.61531,1.0596-.78811,1.5742a15.14828,15.14828,0,0,1,1.9394-.1245,11.85083,11.85083,0,0,1,1.962.168,11.52179,11.52179,0,0,1,3.7382,1.3232,12.35191,12.35191,0,0,1,3.1289,2.5547,16.36894,16.36894,0,0,1,2.3008,3.4165A16.63475,16.63475,0,0,0,165.334,34.2539Z"/>
          <path class="m" d="M156.93749,40.4419a4.53113,4.53113,0,0,1-1.0303.0659c-.3261,0-.6338-.1026-.9551-.1148a3.15575,3.15575,0,0,0-.95109.0967,1.93767,1.93767,0,0,0-.85651.4419l-.0537-.0342a1.94139,1.94139,0,0,1,.7959-.7075,3.45026,3.45026,0,0,1,1.0371-.3096,2.63622,2.63622,0,0,1,1.07521-.0078,2.16838,2.16838,0,0,1,.95509.5069Z"/>
          <path class="m" d="M160.69819,40.7939a2.18824,2.18824,0,0,1,.9131-.583,2.70266,2.70266,0,0,1,1.0713-.0766,3.4346,3.4346,0,0,1,1.0606.2255,1.93145,1.93145,0,0,1,.8457.6397l-.0508.0415a1.944,1.944,0,0,0-.8887-.3745,3.11745,3.11745,0,0,0-.9531-.0171c-.32029.0371-.6201.1655-.9424.1899a4.81852,4.81852,0,0,1-1.0342.0152Z"/>
          <path class="cr" d="M158.56149,43.6816a.61224.61224,0,0,0,.3321-.519,2.11308,2.11308,0,0,0-.0479-.6524,5.62284,5.62284,0,0,0-.3994-1.271l.0488-.0234a1.45979,1.45979,0,0,1,.58791.5132,1.89524,1.89524,0,0,1,.29.6811,1.52282,1.52282,0,0,1-.06251.8164.90711.90711,0,0,1-.2734.3921.50092.50092,0,0,1-.45209.1094Z"/>
          <g>
            <g>
              <path class="ct" d="M160.37009,46.3926c-.456,1.2626-.8926,1.665-1.66109,1.6552-.76951-.0092-1.34861-.8642-.72951-1.3515C158.585,47,159.13479,47.0112,160.37009,46.3926Z"/>
              <path class="cu" d="M158.56449,46.1904s.1113-.4316.3466-.5317c.29891-.1275,1.17091.2983,1.459.7339-1.2353.6186-1.78509.6074-2.3906.3037l.0029-.0015s-.3525-.7476-.1142-.8311C158.10839,45.7827,158.56449,46.1904,158.56449,46.1904Z"/>
              <path class="cv" d="M159.56739,46.728a5.59947,5.59947,0,0,0,.8027-.3354c-.28809-.4356-1.16009-.8614-1.459-.7339-.2353.0976-.3447.5224-.3466.5293A.82072.82072,0,0,1,159.56739,46.728Z"/>
              <path class="cv" d="M158.56349,46.188c-.0069-.0054-.459-.4053-.6953-.3243-.2383.0835.1142.8311.1142.8311l-.0029.0015c.0078.0044.01951.0068.0254.0107C158.042,46.2724,158.07809,46.1045,158.56349,46.188Z"/>
            </g>
            <path class="cw" d="M160.38959,46.3603a3.99143,3.99143,0,0,1-1.3964.4615,1.9388,1.9388,0,0,1-1.045-.1846,1.23418,1.23418,0,0,0-.1367.2514c.0244.0181.0508.0342.0742.0528a1.81082,1.81082,0,0,0,.5801.2544,1.59732,1.59732,0,0,0,.5606.0332,3.56986,3.56986,0,0,0,.8799-.4131c.0888-.0454.1953-.0879.3066-.1416A1.279,1.279,0,0,0,160.38959,46.3603Z"/>
            <path class="cx" d="M158.373,46.8252a1.64975,1.64975,0,0,1-.39351-.1289c-.6191.4873-.04,1.3423.72951,1.3515a1.2013,1.2013,0,0,0,1.24509-.852C159.32419,48.041,157.66209,47.6255,158.373,46.8252Z"/>
            <path class="cy" d="M157.13089,45.9311a2.34716,2.34716,0,0,0,.8632.5557,2.51021,2.51021,0,0,0,.9756.1284,3.24437,3.24437,0,0,0,.9834-.2246c.3682-.1343.8135-.3369,1.2246-.4932a.212.212,0,0,1,0,.0357,5.13753,5.13753,0,0,1-2.1806.9555,1.84118,1.84118,0,0,1-1.0713-.1938,3.20384,3.20384,0,0,1-.8057-.7666Z"/>
            <path class="j" d="M157.95409,47.3965c.1641.2299.3643-.2222.126-.3267C157.84379,46.9648,157.89449,47.3115,157.95409,47.3965Z"/>
            <path class="j" d="M157.92579,46.1792c.0908.0425.11621-.106.0176-.1031C157.84379,46.0801,157.89649,46.1626,157.92579,46.1792Z"/>
          </g>
          <path class="k" d="M161.73239,43.7593c-.166.0444.0254.3584.1651.2065C161.98239,43.8716,162,43.6914,161.73239,43.7593Z"/>
          <path class="k" d="M160.05369,43.3115c-.0068.1113.2305.0532.1602-.0635C160.17189,43.1753,160.06249,43.1294,160.05369,43.3115Z"/>
          <path class="k" d="M154.43549,43.4761c-.0156.0864.1709.0664.1329-.0298C154.54489,43.3852,154.46289,43.3379,154.43549,43.4761Z"/>
          <path class="k" d="M157.58589,43.1142c-.041-.1665-.3574.0249-.207.1636C157.47459,43.3647,157.65429,43.3823,157.58589,43.1142Z"/>
          <path class="k" d="M156.40919,43.6596c-.0879.022.0146.1895.08881.1094C156.543,43.7187,156.55079,43.623,156.40919,43.6596Z"/>
          <path class="k" d="M162.09469,44.5947c-.0869.023.0176.188.0879.1069C162.22849,44.6518,162.23629,44.5571,162.09469,44.5947Z"/>
          <path class="k" d="M164.92769,43.3999c-.0879.0229.0147.188.086.1069C165.05759,43.459,165.06639,43.3623,164.92769,43.3999Z"/>
          <path class="k" d="M157.41019,41.393c-.0879.023.0146.1875.08781.1094C157.542,41.4516,157.55269,41.3564,157.41019,41.393Z"/>
          <path class="k" d="M160.90139,43.7387c-.0889.0225.01361.188.0879.1075C161.03319,43.7959,161.042,43.7026,160.90139,43.7387Z"/>
          <path class="k" d="M158.415,43.0039c.02149.0864.18559-.0156.10549-.0874C158.47069,42.8716,158.376,42.8628,158.415,43.0039Z"/>
          <g>
            <path class="j" d="M162.23629,41.2046a2.13074,2.13074,0,0,0-1.6006,1.5254,4.45833,4.45833,0,0,0,.751.3378,2.6312,2.6312,0,0,0,2.9512-.5654A1.95171,1.95171,0,0,0,162.23629,41.2046Z"/>
            <g>
              <path class="cz" d="M161.74019,41.3677a1.00839,1.00839,0,0,0-.914.9462A2.17417,2.17417,0,0,1,161.74019,41.3677Z"/>
              <path class="cz" d="M161.834,41.3579c-.03221,0-.06151.0068-.09381.0098a2.17417,2.17417,0,0,0-.914.9462,3.679,3.679,0,0,0-.1905.4161,3.79386,3.79386,0,0,0,.3418.1728c.1143.0523.252.1099.4092.165a3.96648,3.96648,0,0,0,.9082.1978,1.00884,1.00884,0,0,0-.46089-1.9077Z"/>
            </g>
            <path class="da" d="M164.33589,42.5024a1.60767,1.60767,0,0,0-.5966-1.1929,1.90777,1.90777,0,0,0-1.3467-.4619,1.80246,1.80246,0,0,0-1.2793.6426,2.00132,2.00132,0,0,0-.4785,1.2402,4.70155,4.70155,0,0,1,.8398-.8579,1.84108,1.84108,0,0,1,.9561-.3506,2.05758,2.05758,0,0,1,1.0117.2212A2.61738,2.61738,0,0,1,164.33589,42.5024Z"/>
            <path class="j" d="M162.00489,42.3974a.35363.35363,0,1,0,.6963-.124.35363.35363,0,0,0-.6963.124Z"/>
            <path d="M160.96289,42.5259a.48014.48014,0,1,0,.3896-.5572A.47775.47775,0,0,0,160.96289,42.5259Z"/>
          </g>
          <g>
            <path class="j" d="M155.459,41.2329a2.10459,2.10459,0,0,0-1.959.9658,4.39643,4.39643,0,0,0,.60839.54,2.60041,2.60041,0,0,0,2.9492.3394A1.9293,1.9293,0,0,0,155.459,41.2329Z"/>
            <g>
              <path class="cz" d="M154.34279,41.456a1.96715,1.96715,0,0,1,.3095-.1401A1.01227,1.01227,0,0,0,154.34279,41.456Z"/>
              <path class="cz" d="M155.96389,42.312a1.02444,1.02444,0,0,0-1.3116-.9961,1.96715,1.96715,0,0,0-.3095.1401,1.03431,1.03431,0,0,0-.4541.856,1.00709,1.00709,0,0,0,.0488.2925c.0537.0439.1084.0883.1709.1342a3.681,3.681,0,0,0,1.1025.5655A1.03563,1.03563,0,0,0,155.96389,42.312Z"/>
            </g>
            <path class="da" d="M157.05659,43.0776a1.59388,1.59388,0,0,0-.2119-1.3017,1.88783,1.88783,0,0,0-1.1328-.8326,1.77913,1.77913,0,0,0-1.3965.2271,1.976,1.976,0,0,0-.81639,1.0283,4.65131,4.65131,0,0,1,1.04589-.5605,1.813,1.813,0,0,1,1.003-.0489,2.02247,2.02247,0,0,1,.8896.5083A2.6,2.6,0,0,1,157.05659,43.0776Z"/>
            <path class="j" d="M155.17379,42.3423a.3495.3495,0,1,0,.3907-.3028A.35.35,0,0,0,155.17379,42.3423Z"/>
            <path d="M154.18159,42.3266a.475.475,0,1,0,.5313-.4116A.47576.47576,0,0,0,154.18159,42.3266Z"/>
          </g>
          <path class="cr" d="M151.998,42.2544c-.95891-.145-.25971,1.479.84089,1.5888Z"/>
          <path class="cr" d="M166.70409,41.8008c.9512-.4175.8467,1.1386-.5049,1.5683Z"/>
        </g>
      </g>
    </g>
  </g>
</svg>
